<?xml version="1.0" encoding="utf-8"?>
<svg viewBox="0 0 613 555" xmlns="http://www.w3.org/2000/svg" xmlns:bx="https://boxy-svg.com">
  <defs>
    <style>
      .die_color{fill:#fff}
      .die_edges_outline{fill:none;stroke-width:2px;}
      .die_edges{stroke:#000;stroke-miterlimit:10;}
      .die_numbers{fill:#000}
      svg .die{display:none}
      svg .die:target{display:inline}
    </style>
    <bx:guide x="0" y="555" angle="90"/>
  </defs>
  <title>polyhedral dice</title>
  <g id="d100_die" data-name="d100 die" class="die" transform="matrix(1.140784, 0, 0, 1.140784, -128.678177, -937.558594)">
    <g id="d100_geometry" data-name="d100 Geometry" style="">
      <path class="die_color" d="M 317.64 824.06 C 301.23 822.33 279.46 821.42 269.27 822.06 C 259.08 822.7 242.05 825.82 231.43 829.06 C 220.81 832.3 205.24 839.67 196.83 845.41 C 188.42 851.15 170.74 864 157.56 873.88 L 136.45 889.79 C 123.28 899.72 112.63 921.34 112.8 937.84 L 115.8 1233.57 C 115.97 1250.07 129.48 1265.42 145.8 1267.69 L 407.09 1304 C 423.44 1306.27 444.86 1306.49 454.7 1304.48 C 464.54 1302.47 480.32 1296.88 489.77 1292.06 C 499.22 1287.24 516.96 1278.86 529.21 1273.44 C 541.46 1268.02 556.42 1258.81 562.44 1252.98 C 568.46 1247.15 576.36 1238.98 579.97 1234.72 C 583.58 1230.46 586.55 1213.55 586.55 1197.05 L 586.55 882.33 C 586.55 865.83 573.12 850.92 556.71 849.19 L 317.64 824.06 Z"/>
      <path class="die_edges" d="M317.64,824.06c-16.41-1.73-38.18-2.64-48.37-2s-27.22,3.76-37.84,7-26.19,10.61-34.6,16.35S170.74,864,157.56,873.88l-21.11,15.91c-13.17,9.93-23.82,31.55-23.65,48.05l3,295.73c.17,16.5,13.68,31.85,30,34.12L407.09,1304c16.35,2.27,37.77,2.49,47.61.48s25.62-7.6,35.07-12.42,27.19-13.2,39.44-18.62,27.21-14.63,33.23-20.46,13.92-14,17.53-18.26,6.58-21.17,6.58-37.67V882.33c0-16.5-13.43-31.41-29.84-33.14ZM203.9,860.89c12.15-6.22,22.51-10.29,47.95-16.64,5.38-1.34,23-4.39,30.37-3.73l10,.9c7.48.73,18.41,1.85,24.3,2.48s17.42,1.76,25.64,2.51,28.34,3,44.72,4.9l75.85,9c16.39,1.94,16.42,5.38.08,7.64l-229.5,31.8c-16.34,2.26-36.47-2.77-44.72-11.17l-2.76-2.8s-2.51-4.06-2.52-4.09c-.86-2.23-1.15-4.9,1.49-7C192.05,868.75,199.43,863.18,203.9,860.89Zm324.24,18.17c16.34-2.27,23.69,8,16.33,22.73l-116.9,234.56c-7.37,14.76-23.8,18.25-36.52,7.75,0,0-9.41-7.77-58.7-35.34-31.14-17.41-45.76-24.75-45.76-24.75-14.74-7.41-29.84-26.63-33.54-42.71,0,0-8.08-35-14.81-58A297.16,297.16,0,0,0,226.31,950c-6.7-15.08,1.19-29.27,17.53-31.54Zm-394,70.65c-.17-16.5,7.09-35.67,16.13-42.61l5.79-3.75c6.51-4.21,14.64-8,24.85-2.09,7.44,4.31,12.21,20.76,20.62,39.5,24.85,55.39,33.69,104.76,33.69,104.76,2.91,16.25-2.45,40.59-11.92,54.1l-69.14,98.66c-9.47,13.51-17.36,11.07-17.53-5.43Zm301.73,336c-1.94.4-16.91-1.14-33.25-3.41l-228.07-31.69c-16.34-2.27-22-15.18-12.5-28.7l75.13-107.19c9.46-13.51,29.18-18.33,43.82-10.7,0,0,107.19,55.87,121.24,75.61,16.05,22.55,29.76,76.29,29.76,76.29C436.08,1271.85,437.82,1285.26,435.87,1285.66Zm129.39-100.38c0,16.5-6.58,36.85-14.62,45.23s-19,17.16-24.31,19.52-22.13,9.54-37.33,16l-2.79,1.18c-15.2,6.41-30.79-1-34.63-16.57l-4.9-15.35c-6.25-19.58-8.39-24.74-8.39-24.74-6.35-15.23-5.52-39.77,1.84-54.54l111.75-224.2c7.36-14.77,13.38-13.35,13.38,3.15Z"/>
      <path class="die_edges_outline" d="M317.64,824.06c-16.41-1.73-38.18-2.64-48.37-2s-27.22,3.76-37.84,7-26.19,10.61-34.6,16.35S170.74,864,157.56,873.88l-21.11,15.91c-13.17,9.93-23.82,31.55-23.65,48.05l3,295.73c.17,16.5,13.68,31.85,30,34.12L407.09,1304c16.35,2.27,37.77,2.49,47.61.48s25.62-7.6,35.07-12.42,27.19-13.2,39.44-18.62,27.21-14.63,33.23-20.46,13.92-14,17.53-18.26,6.58-21.17,6.58-37.67V882.33c0-16.5-13.43-31.41-29.84-33.14ZM203.9,860.89c12.15-6.22,22.51-10.29,47.95-16.64,5.38-1.34,23-4.39,30.37-3.73l10,.9c7.48.73,18.41,1.85,24.3,2.48s17.42,1.76,25.64,2.51,28.34,3,44.72,4.9l75.85,9c16.39,1.94,16.42,5.38.08,7.64l-229.5,31.8c-16.34,2.26-36.47-2.77-44.72-11.17l-2.76-2.8s-2.51-4.06-2.52-4.09c-.86-2.23-1.15-4.9,1.49-7C192.05,868.75,199.43,863.18,203.9,860.89Zm324.24,18.17c16.34-2.27,23.69,8,16.33,22.73l-116.9,234.56c-7.37,14.76-23.8,18.25-36.52,7.75,0,0-9.41-7.77-58.7-35.34-31.14-17.41-45.76-24.75-45.76-24.75-14.74-7.41-29.84-26.63-33.54-42.71,0,0-8.08-35-14.81-58A297.16,297.16,0,0,0,226.31,950c-6.7-15.08,1.19-29.27,17.53-31.54Zm-394,70.65c-.17-16.5,7.09-35.67,16.13-42.61l5.79-3.75c6.51-4.21,14.64-8,24.85-2.09,7.44,4.31,12.21,20.76,20.62,39.5,24.85,55.39,33.69,104.76,33.69,104.76,2.91,16.25-2.45,40.59-11.92,54.1l-69.14,98.66c-9.47,13.51-17.36,11.07-17.53-5.43Zm301.73,336c-1.94.4-16.91-1.14-33.25-3.41l-228.07-31.69c-16.34-2.27-22-15.18-12.5-28.7l75.13-107.19c9.46-13.51,29.18-18.33,43.82-10.7,0,0,107.19,55.87,121.24,75.61,16.05,22.55,29.76,76.29,29.76,76.29C436.08,1271.85,437.82,1285.26,435.87,1285.66Zm129.39-100.38c0,16.5-6.58,36.85-14.62,45.23s-19,17.16-24.31,19.52-22.13,9.54-37.33,16l-2.79,1.18c-15.2,6.41-30.79-1-34.63-16.57l-4.9-15.35c-6.25-19.58-8.39-24.74-8.39-24.74-6.35-15.23-5.52-39.77,1.84-54.54l111.75-224.2c7.36-14.77,13.38-13.35,13.38,3.15Z"/>
    </g>
    <path class="die_numbers" id="d100_numbers" data-name="d100 numbers" d="M 534.015 1121.73 C 530.291 1124.972 526.653 1129.844 523.656 1135.603 C 520.83 1141.009 518.395 1146.752 516.467 1152.565 C 511.97 1165.839 508.595 1179.099 506.479 1191.808 C 505.9 1195.298 505.517 1198.681 505.333 1201.917 C 505.144 1204.882 505.205 1207.647 505.515 1210.15 C 506.221 1216.441 509.125 1219.965 513.41 1219.729 C 516.313 1219.664 519.555 1218.42 522.932 1216.077 C 528.26 1212.443 533 1206.223 537.282 1198.011 C 538.91 1194.689 540.39 1191.262 541.699 1187.785 C 543.753 1182.346 545.485 1176.854 546.854 1171.433 C 549.596 1160.731 551.58 1150.246 552.757 1140.228 C 553.191 1136.687 553.412 1133.282 553.421 1130.06 C 553.432 1127.38 553.209 1124.918 552.758 1122.724 C 551.849 1117.98 549.306 1115.48 545.762 1115.848 C 542.195 1116.085 538.143 1118.112 534.015 1121.73 Z M 540.244 1134.946 C 540.504 1136.223 540.56 1137.735 540.406 1139.403 C 540.247 1141.632 540.001 1143.92 539.669 1146.26 C 538.169 1156 536.021 1166.061 533.262 1176.262 C 532.309 1179.879 531.096 1183.534 529.658 1187.132 C 529.196 1188.264 528.681 1189.392 528.465 1189.892 C 527.101 1192.578 525.892 1194.306 524.533 1195.418 C 522.145 1197.573 520.069 1197.069 519.583 1194.213 C 519.314 1192.956 519.246 1191.458 519.392 1189.803 C 519.573 1187.416 519.852 1184.963 520.224 1182.457 C 521.983 1172.01 524.491 1161.224 527.693 1150.333 C 528.662 1146.868 529.93 1143.377 531.443 1140.003 C 533.089 1136.417 534.998 1133.808 537.222 1132.899 C 538.771 1132.203 539.939 1132.968 540.272 1134.901 L 540.244 1134.946 Z M 303.641 873.915 C 300.164 872.283 295.187 870.913 289.463 870.01 C 284.091 869.159 278.45 868.566 272.813 868.263 C 259.924 867.521 247.189 867.395 235.122 867.893 C 231.81 868.031 228.62 868.264 225.592 868.586 C 222.815 868.87 220.255 869.267 217.971 869.766 C 212.217 870.982 209.307 873.049 210.063 875.385 C 210.485 876.98 212.046 878.608 214.642 880.167 C 218.684 882.635 225.054 884.437 233.215 885.727 C 236.502 886.19 239.871 886.559 243.263 886.826 C 248.568 887.245 253.885 887.482 259.092 887.528 C 269.372 887.64 279.358 887.361 288.807 886.697 C 292.149 886.472 295.338 886.149 298.332 885.729 C 300.822 885.384 303.08 884.937 305.061 884.4 C 309.353 883.275 311.357 881.544 310.57 879.634 C 309.905 877.694 307.518 875.723 303.641 873.915 Z M 292.147 879.09 C 290.996 879.401 289.598 879.63 288.028 879.765 C 285.94 879.969 283.781 880.132 281.568 880.257 C 272.336 880.704 262.724 880.838 252.908 880.651 C 249.43 880.6 245.883 880.409 242.362 880.086 C 241.252 879.98 240.143 879.843 239.65 879.79 C 236.985 879.389 235.23 878.946 234.027 878.343 C 231.728 877.304 231.938 876.091 234.528 875.448 C 235.663 875.135 237.044 874.903 238.6 874.765 C 240.84 874.552 243.151 874.383 245.524 874.26 C 255.446 873.862 265.774 873.832 276.288 874.173 C 279.629 874.255 283.029 874.497 286.351 874.89 C 289.886 875.329 292.546 876.042 293.668 877.152 C 294.509 877.915 293.944 878.663 292.191 879.099 L 292.147 879.09 Z M 386.956 939.771 C 382.272 936.076 376.511 934.007 370.546 933.881 C 364.94 933.736 359.352 934.593 354.046 936.411 C 341.869 940.402 330.432 946.372 320.196 954.08 C 317.388 956.201 314.781 958.575 312.406 961.171 C 310.216 963.509 308.328 966.112 306.786 968.921 C 302.861 975.857 302.294 984.199 305.246 991.601 C 307.18 996.703 310.157 1001.344 313.986 1005.231 C 319.986 1011.421 327.406 1014.231 335.916 1014.431 C 339.289 1014.326 342.641 1013.863 345.916 1013.05 C 351.043 1011.793 355.997 1009.913 360.666 1007.451 C 369.909 1002.667 378.508 996.73 386.256 989.78 C 389.006 987.354 391.524 984.676 393.776 981.781 C 395.65 979.381 397.221 976.763 398.456 973.981 C 401.172 968.082 401.26 961.308 398.696 955.341 C 396.212 949.214 392.164 943.844 386.956 939.771 Z M 381.796 962.771 C 381.077 964.384 380.059 965.847 378.796 967.081 C 377.139 968.808 375.382 970.437 373.536 971.961 C 365.771 978.086 357.361 983.347 348.456 987.651 C 345.316 989.223 341.98 990.369 338.536 991.061 C 337.446 991.261 336.326 991.361 335.836 991.431 C 333.076 991.431 331.086 990.841 329.426 989.431 C 326.37 987.128 325.372 982.982 327.046 979.541 C 327.748 977.928 328.749 976.461 329.996 975.221 C 331.779 973.393 333.669 971.673 335.656 970.071 C 344.084 963.768 353.232 958.49 362.906 954.35 C 365.953 952.946 369.21 952.047 372.546 951.691 C 376.116 951.38 379.176 952.421 381.256 955.55 C 382.75 957.676 382.976 960.443 381.846 962.781 L 381.796 962.771 Z M 221.104 1040.049 C 220.706 1044.164 219.675 1048.188 218.046 1051.995 C 215.687 1057.486 212.561 1062.634 208.755 1067.303 C 208.372 1067.83 207.559 1067.842 207.143 1067.323 C 207.057 1067.19 206.944 1067.082 206.868 1066.941 C 205.617 1064.764 204.364 1062.644 203.12 1060.476 C 202.627 1059.654 202.681 1058.639 203.256 1057.886 C 204.625 1055.838 205.818 1053.687 206.825 1051.451 C 207.571 1049.769 208.044 1047.984 208.228 1046.159 C 208.423 1044.628 208.043 1043.071 207.155 1041.767 C 206.261 1040.42 204.552 1039.796 202.973 1040.24 C 201.918 1040.57 200.93 1041.062 200.046 1041.697 C 196.553 1044.372 193.945 1047.965 192.534 1052.046 C 191.247 1055.233 191.47 1058.82 193.142 1061.884 C 193.577 1062.565 193.505 1063.429 192.968 1064.02 C 190.287 1067.205 187.59 1070.381 184.876 1073.552 C 184.694 1073.761 184.333 1073.841 184.063 1073.985 C 183.061 1073.904 182.443 1073.07 181.615 1072.653 C 180.631 1072.095 179.454 1071.953 178.371 1072.262 C 177.446 1072.485 176.562 1072.83 175.74 1073.289 C 171.846 1075.706 168.981 1079.373 167.645 1083.645 C 167.382 1084.687 167.417 1085.784 167.746 1086.815 C 168.232 1088.359 169.878 1089.296 171.509 1088.957 C 172.755 1088.664 173.907 1088.09 174.87 1087.287 C 176.322 1086.109 177.667 1084.832 179.068 1083.596 C 179.558 1083.186 180.287 1083.18 180.8 1083.578 C 182.907 1085.685 184.75 1088.018 186.289 1090.532 C 182.482 1095.402 177.495 1099.301 171.75 1101.907 C 171.03 1102.222 170.281 1102.481 169.511 1102.676 C 168.447 1102.934 167.337 1103.097 166.241 1103.252 C 163.195 1103.646 160.099 1102.762 157.742 1100.823 C 154.64 1098.534 152.612 1095.16 152.112 1091.459 C 151.594 1087.789 152.06 1084.065 153.465 1080.644 C 156.09 1073.911 160.394 1067.917 166.007 1063.18 C 169.655 1059.97 173.84 1058.046 179 1058.949 C 179.506 1059.022 179.943 1058.63 179.903 1058.145 C 179.889 1057.84 179.917 1057.525 179.871 1057.225 C 178.923 1051.397 180.231 1045.961 182.925 1040.833 C 186.291 1034.445 190.932 1028.765 196.589 1024.111 C 198.384 1022.605 200.388 1021.342 202.548 1020.359 C 203.986 1019.722 205.51 1019.273 207.078 1019.025 C 210.287 1018.496 213.578 1019.603 215.779 1021.949 C 217.117 1023.291 218.179 1024.862 218.904 1026.577 C 220.849 1030.832 221.602 1035.483 221.092 1040.066 L 221.104 1040.049 Z M 253.095 865.708 C 259.461 866.203 265.867 866.253 272.245 865.857 C 278.783 865.47 285.212 864.254 291.304 862.252 C 291.874 862.062 292.474 861.93 292.974 861.798 C 296.334 864.385 296.814 864.682 300.975 865.187 C 309.712 866.238 318.628 865.456 326.904 862.914 C 328.862 862.314 330.702 861.477 332.365 860.433 C 334.066 859.438 335.48 858.141 336.505 856.639 C 337.849 854.868 337.194 852.532 335.044 851.431 C 333.576 850.627 331.942 850.049 330.224 849.728 C 325.684 848.744 321.054 848.744 316.414 848.802 C 312.894 848.79 309.397 849.288 306.084 850.274 C 305.515 850.424 304.933 850.544 304.344 850.629 C 300.204 847.62 298.784 847 293.274 846.165 C 290.925 845.81 288.525 845.661 286.145 845.471 C 277.856 844.822 269.496 845.225 261.355 846.669 C 256.967 847.411 252.752 848.726 248.864 850.563 C 246.212 851.795 243.811 853.364 241.744 855.209 C 240.737 856.064 239.957 857.083 239.455 858.202 C 238.781 859.611 239.225 861.218 240.574 862.244 C 241.613 863.069 242.859 863.697 244.224 864.079 C 247.078 864.955 250.062 865.503 253.095 865.708 Z M 306.014 856.705 C 306.554 856.233 307.178 855.831 307.865 855.515 C 309.305 854.945 310.878 854.635 312.475 854.606 L 315.815 854.606 L 315.815 854.515 C 317.085 854.543 318.351 854.642 319.604 854.812 C 320.503 855.054 321.362 855.384 322.165 855.795 C 322.435 855.912 322.464 856.623 322.304 856.887 C 321.918 857.469 321.299 857.921 320.554 858.168 C 319.687 858.495 318.778 858.742 317.845 858.905 C 314.575 859.532 311.17 859.492 307.924 858.788 C 307.34 858.607 306.78 858.374 306.254 858.094 C 305.739 857.758 305.633 857.147 306.014 856.705 Z M 263.914 855.49 C 264.545 854.909 265.261 854.395 266.044 853.961 C 267.989 853.051 270.142 852.488 272.365 852.307 C 276.47 851.944 280.609 851.944 284.714 852.307 C 286.295 852.44 287.828 852.831 289.224 853.457 C 290.424 854.013 290.556 855.398 289.475 856.102 C 288.613 856.677 287.658 857.147 286.635 857.499 C 284.98 857.946 283.29 858.294 281.574 858.541 C 280.321 858.708 279.055 858.802 277.785 858.821 C 276.674 858.821 275.564 858.821 274.454 858.821 L 274.454 858.954 L 267.814 858.557 C 266.544 858.471 265.321 858.124 264.254 857.548 C 263.424 857.082 263.266 856.123 263.914 855.49 Z M 505.483 1097.418 C 504.77 1097.46 504.055 1097.567 503.336 1097.73 C 502.293 1099.149 501.314 1100.546 500.323 1101.965 C 487.6 1120.118 474.92 1138.326 462.129 1156.412 C 459.334 1160.113 457.163 1164.454 455.779 1169.1 C 455.062 1171.696 454.12 1174.219 453.29 1176.823 C 453.201 1177.346 453.373 1177.833 453.719 1178.055 C 455.047 1178.331 456.357 1178.685 457.711 1178.85 C 461.9 1179.396 466.106 1179.85 470.3 1180.385 C 472.461 1180.657 474.608 1181.019 476.756 1181.367 C 477.092 1181.498 477.408 1181.68 477.698 1181.908 C 477.262 1185.014 476.104 1187.668 475.29 1190.415 C 473.889 1195.062 472.392 1199.662 470.889 1204.282 C 470.675 1204.955 470.466 1205.65 470.268 1206.334 C 470.055 1207.047 470.308 1207.756 470.839 1207.941 C 475.011 1209.085 479.391 1209.497 483.706 1210.109 C 483.839 1210.121 483.978 1210.086 484.107 1210 C 484.36 1209.836 484.683 1209.677 484.813 1209.41 C 485.199 1208.624 485.528 1207.797 485.796 1206.952 C 487.801 1200.42 489.752 1193.879 491.735 1187.36 C 492.1 1186.178 492.608 1185.057 493.047 1183.82 C 493.633 1183.718 494.219 1183.652 494.799 1183.623 C 496.04 1183.633 497.259 1183.833 498.491 1183.866 C 498.99 1183.832 499.496 1183.733 499.996 1183.569 C 500.208 1183.22 500.397 1182.851 500.562 1182.471 C 502.538 1175.938 504.493 1169.403 506.421 1162.863 C 506.584 1162.345 506.674 1161.811 506.683 1161.284 C 506.645 1160.96 506.492 1160.698 506.263 1160.572 C 504.809 1160.263 503.327 1160.027 501.857 1159.773 C 501.242 1159.715 500.747 1159.252 500.545 1158.546 C 502.019 1153.747 503.511 1148.768 505.006 1143.796 C 506.502 1138.82 508.061 1133.864 509.588 1128.855 C 511.154 1123.704 512.75 1118.552 514.248 1113.409 C 515.693 1108.426 517.526 1103.55 518.561 1098.525 C 518.23 1098.266 518.038 1097.946 517.771 1097.943 C 513.699 1097.702 509.6 1097.525 505.483 1097.418 Z M 486.232 1155.877 C 485.963 1156.552 485.646 1157.201 485.289 1157.816 C 484.722 1157.921 484.164 1157.981 483.605 1157.991 C 482.111 1157.879 480.614 1157.766 479.139 1157.556 C 474.642 1156.907 474.294 1157.346 477.764 1152.387 C 481.232 1147.428 484.658 1142.492 488.086 1137.5 C 489.758 1135.082 491.373 1132.627 493.028 1130.197 C 493.411 1129.635 493.848 1129.096 494.311 1128.537 C 494.465 1128.882 494.676 1129.126 494.63 1129.29 C 491.844 1138.177 489.045 1147.045 486.228 1155.901 L 486.232 1155.877 Z M 195.117 970.91 C 191.234 970.343 186.776 971.428 182.422 973.995 C 178.326 976.391 174.372 979.499 170.749 983.173 C 162.407 991.471 154.861 1000.863 148.413 1010.97 C 146.644 1013.746 145.057 1016.613 143.663 1019.539 C 142.375 1022.195 141.338 1024.91 140.58 1027.614 C 138.623 1034.352 139.286 1040.6 142.39 1044.604 C 144.456 1047.408 147.223 1049.417 150.51 1050.502 C 155.674 1052.276 161.432 1050.986 167.648 1047.334 C 170.087 1045.752 172.465 1043.926 174.741 1041.882 C 178.309 1038.692 181.668 1035.129 184.746 1031.279 C 190.85 1023.717 196.336 1015.615 201.074 1007.165 C 202.759 1004.193 204.245 1001.146 205.509 998.061 C 206.561 995.501 207.364 992.918 207.904 990.368 C 209.116 984.918 208.303 980.008 205.668 976.864 C 203.07 973.568 199.433 971.514 195.117 970.91 Z M 194.338 989.739 C 194.023 991.222 193.472 992.728 192.712 994.177 C 191.731 996.157 190.664 998.112 189.518 1000.03 C 184.664 1007.894 179.227 1015.427 173.306 1022.493 C 171.226 1025.023 168.947 1027.335 166.533 1029.369 C 165.766 1029.998 164.964 1030.57 164.617 1030.84 C 162.61 1032.071 161.086 1032.532 159.696 1032.26 C 157.176 1031.967 155.914 1029.433 156.686 1026.212 C 156.989 1024.741 157.526 1023.241 158.274 1021.792 C 159.333 1019.683 160.487 1017.603 161.725 1015.567 C 167.041 1007.277 173.01 999.403 179.511 992.115 C 181.545 989.745 183.797 987.646 186.178 985.902 C 188.734 984.088 191.095 983.47 193.011 984.792 C 194.374 985.652 194.894 987.542 194.375 989.725 L 194.338 989.739 Z M 428.758 1001.75 C 424.074 998.055 418.313 995.987 412.348 995.86 C 406.742 995.715 401.154 996.572 395.848 998.39 C 383.671 1002.381 372.234 1008.351 361.998 1016.06 C 359.19 1018.18 356.583 1020.554 354.208 1023.15 C 352.018 1025.488 350.13 1028.092 348.588 1030.9 C 344.663 1037.836 344.096 1046.178 347.048 1053.58 C 348.982 1058.682 351.959 1063.324 355.788 1067.21 C 361.788 1073.4 369.208 1076.21 377.718 1076.41 C 381.091 1076.305 384.443 1075.842 387.718 1075.03 C 392.845 1073.773 397.799 1071.892 402.468 1069.43 C 411.711 1064.646 420.31 1058.709 428.058 1051.76 C 430.808 1049.333 433.326 1046.655 435.578 1043.76 C 437.452 1041.361 439.023 1038.742 440.258 1035.96 C 442.974 1030.061 443.062 1023.287 440.498 1017.32 C 438.014 1011.193 433.966 1005.824 428.758 1001.75 Z M 423.598 1024.75 C 422.879 1026.363 421.861 1027.826 420.598 1029.06 C 418.941 1030.787 417.184 1032.416 415.338 1033.94 C 407.573 1040.065 399.163 1045.326 390.258 1049.63 C 387.118 1051.202 383.782 1052.348 380.338 1053.04 C 379.248 1053.24 378.128 1053.34 377.638 1053.41 C 374.878 1053.41 372.888 1052.82 371.228 1051.41 C 368.172 1049.107 367.174 1044.962 368.848 1041.52 C 369.55 1039.907 370.551 1038.441 371.798 1037.2 C 373.581 1035.372 375.471 1033.652 377.458 1032.05 C 385.886 1025.747 395.034 1020.47 404.708 1016.33 C 407.755 1014.925 411.012 1014.026 414.348 1013.67 C 417.918 1013.36 420.978 1014.4 423.058 1017.53 C 424.552 1019.655 424.778 1022.422 423.648 1024.76 L 423.598 1024.75 Z M 385.265 1211.695 C 385.706 1212.094 385.311 1213.047 384.679 1213.239 C 384.505 1213.256 384.367 1213.38 384.198 1213.427 L 383.19 1213.667 C 373.225 1215.719 363.255 1217.732 353.303 1219.823 C 343.353 1221.915 333.409 1224.086 323.459 1226.177 C 316.197 1227.703 308.928 1229.14 301.664 1230.646 C 300.673 1230.894 299.703 1231.214 298.764 1231.604 C 298.395 1231.703 298.238 1232.112 298.462 1232.397 C 299.025 1233.182 299.642 1233.929 300.309 1234.637 C 305.215 1239.512 310.15 1244.363 315.069 1249.266 C 315.762 1249.964 316.408 1250.705 317 1251.478 C 317.112 1251.628 316.959 1252.056 316.796 1252.282 C 316.601 1252.549 316.339 1252.767 316.034 1252.92 C 312.073 1254.923 308.107 1256.913 304.141 1258.889 C 303.371 1259.331 302.376 1259.205 301.779 1258.588 C 300.952 1257.785 300.124 1256.983 299.316 1256.157 C 291.102 1247.846 282.893 1239.534 274.692 1231.222 C 273.767 1230.308 272.93 1229.295 272.08 1228.374 C 272.336 1227.986 272.442 1227.645 272.687 1227.48 C 275.236 1225.813 277.786 1224.146 280.407 1222.563 C 281.155 1222.16 281.965 1221.866 282.807 1221.694 C 288.977 1220.144 295.161 1218.613 301.356 1217.101 C 307.217 1215.656 313.074 1214.221 318.924 1212.796 C 326.627 1210.926 334.337 1209.094 342.03 1207.214 C 349.724 1205.335 357.39 1203.296 365.12 1201.563 C 373.613 1199.655 370.889 1198.987 377.17 1204.4 C 379.912 1206.794 382.564 1209.267 385.256 1211.716 L 385.265 1211.695 Z M 330.134 1165.327 C 324.59 1163.669 317.858 1162.98 310.962 1163.366 C 304.48 1163.716 298.055 1164.611 291.99 1166.01 C 278.065 1169.12 265.067 1173.254 253.519 1178.245 C 250.352 1179.616 247.425 1181.112 244.775 1182.71 C 242.329 1184.154 240.242 1185.72 238.562 1187.371 C 234.278 1191.457 233.924 1196.054 237.602 1199.869 C 240.021 1202.506 243.628 1204.811 248.193 1206.64 C 255.349 1209.561 264.024 1210.527 273.862 1209.985 C 277.756 1209.67 281.612 1209.161 285.366 1208.467 C 291.245 1207.389 296.9 1205.983 302.205 1204.282 C 312.712 1200.965 322.432 1197.065 331.133 1192.68 C 334.223 1191.144 337.035 1189.49 339.532 1187.738 C 341.611 1186.284 343.331 1184.735 344.658 1183.123 C 347.582 1179.694 347.439 1175.989 344.261 1172.929 C 341.17 1169.774 336.299 1167.152 330.134 1165.327 Z M 325.004 1178.276 C 324.232 1179.212 323.108 1180.089 321.694 1180.859 C 319.841 1181.928 317.871 1182.952 315.792 1183.924 C 307.042 1187.862 297.516 1191.377 287.383 1194.408 C 283.812 1195.507 279.999 1196.386 276.045 1197.028 C 274.793 1197.22 273.503 1197.361 272.939 1197.436 C 269.75 1197.647 267.43 1197.478 265.46 1196.835 C 261.847 1195.811 260.544 1193.625 262.354 1191.619 C 263.107 1190.684 264.21 1189.807 265.605 1189.034 C 267.6 1187.9 269.721 1186.817 271.959 1185.79 C 281.469 1181.705 291.847 1178.125 302.875 1175.125 C 306.345 1174.126 310.075 1173.386 313.917 1172.936 C 318.03 1172.493 321.603 1172.827 324.119 1174.377 C 325.922 1175.422 326.283 1176.916 325.063 1178.278 L 325.004 1178.276 Z" style=""/>
  </g>
  <g id="d20_die" data-name="d20 die" class="die" transform="matrix(0.874215, 0, 0, 0.874215, -1204.638184, -611.984741)">
    <g id="d20_geometry" data-name="d20 geometry">
      <path class="die_color" d="M 1903.74 785.42 C 1889.299 771.642 1873.951 758.847 1857.8 747.12 L 1810.44 713.75 C 1796.95 704.25 1772.53 698.29 1756.18 700.5 L 1533 730.79 C 1516.65 733 1498.34 747.39 1492.32 762.79 L 1380.56 1047.68 C 1374.56 1063.04 1379.32 1084.98 1391.2 1096.43 L 1621.92 1318.84 C 1633.8 1330.29 1656.79 1337.2 1673.01 1334.19 L 1885.74 1294.73 C 1901.97 1291.73 1920.48 1276.82 1926.89 1261.61 L 2050.41 968.49 C 2056.81 953.28 2052.41 931.38 2040.65 919.83 L 1903.74 785.42 Z"/>
      <path class="die_edges" d="M1903.74,785.42a447.19,447.19,0,0,0-45.94-38.3l-47.36-33.37c-13.49-9.5-37.91-15.46-54.26-13.25L1533,730.79c-16.35,2.21-34.66,16.6-40.68,32l-111.76,284.89c-6,15.36-1.24,37.3,10.64,48.75l230.72,222.41c11.88,11.45,34.87,18.36,51.09,15.35l212.73-39.46c16.23-3,34.74-17.91,41.15-33.12l123.52-293.12c6.4-15.21,2-37.11-9.76-48.66ZM1750.3,726.26c16.35-2.22,40.76,3.74,54.25,13.24l9.79,6.9c13.49,9.5,11.06,16.23-5.39,14.94L1637.43,748c-16.45-1.29-16.53-4.15-.18-6.37Zm69.61,56c16.45,1.28,19.72,11.19,7.27,22L1632.69,973.34c-12.46,10.82-27.13,6.94-32.6-8.62l-62.25-177c-5.48-15.56,3.5-27.25,20-26Zm-318,22.66c6-15.36,15.44-15.2,20.91.37l59.78,169.93a28,28,0,0,1-18.89,36.53l-132.1,37.69c-15.87,4.53-23.92-4.34-17.89-19.7Zm-74.8,293.58c-11.88-11.45-8.62-24.52,7.25-29l133.91-38.2c15.86-4.53,30.61,5.15,32.77,21.51l28.32,214.75c2.16,16.36-5.79,20.37-17.67,8.92Zm194.41-43.39c-2.16-16.36,8.74-25,24.21-19.3l264.81,98.25c15.47,5.74,16.43,17.18,2.14,25.43l-231.79,133.69c-14.3,8.25-27.76,1.61-29.91-14.75Zm288.73,184.7c-6.41,15.21-24.92,30.11-41.15,33.12l-137.17,25.44c-16.22,3-17.8-1.27-3.51-9.52L1915.33,1181c14.29-8.24,20.74-2.54,14.33,12.66ZM1652.9,1017.14c-15.47-5.74-17.93-19.29-5.48-30.11l198.45-172.5c12.46-10.83,25.79-6.56,29.63,9.49l65.5,273.44c3.84,16-5.67,24.47-21.14,18.73Zm246.32-180c-3.84-16,2.65-19.71,14.42-8.15l98.63,96.82c11.77,11.56,16.16,33.46,9.76,48.66l-45.68,108.4c-6.41,15.21-14.8,14.52-18.64-1.53Z"/>
      <path class="die_edges_outline" d="M1903.74,785.42a447.19,447.19,0,0,0-45.94-38.3l-47.36-33.37c-13.49-9.5-37.91-15.46-54.26-13.25L1533,730.79c-16.35,2.21-34.66,16.6-40.68,32l-111.76,284.89c-6,15.36-1.24,37.3,10.64,48.75l230.72,222.41c11.88,11.45,34.87,18.36,51.09,15.35l212.73-39.46c16.23-3,34.74-17.91,41.15-33.12l123.52-293.12c6.4-15.21,2-37.11-9.76-48.66ZM1750.3,726.26c16.35-2.22,40.76,3.74,54.25,13.24l9.79,6.9c13.49,9.5,11.06,16.23-5.39,14.94L1637.43,748c-16.45-1.29-16.53-4.15-.18-6.37Zm69.61,56c16.45,1.28,19.72,11.19,7.27,22L1632.69,973.34c-12.46,10.82-27.13,6.94-32.6-8.62l-62.25-177c-5.48-15.56,3.5-27.25,20-26Zm-318,22.66c6-15.36,15.44-15.2,20.91.37l59.78,169.93a28,28,0,0,1-18.89,36.53l-132.1,37.69c-15.87,4.53-23.92-4.34-17.89-19.7Zm-74.8,293.58c-11.88-11.45-8.62-24.52,7.25-29l133.91-38.2c15.86-4.53,30.61,5.15,32.77,21.51l28.32,214.75c2.16,16.36-5.79,20.37-17.67,8.92Zm194.41-43.39c-2.16-16.36,8.74-25,24.21-19.3l264.81,98.25c15.47,5.74,16.43,17.18,2.14,25.43l-231.79,133.69c-14.3,8.25-27.76,1.61-29.91-14.75Zm288.73,184.7c-6.41,15.21-24.92,30.11-41.15,33.12l-137.17,25.44c-16.22,3-17.8-1.27-3.51-9.52L1915.33,1181c14.29-8.24,20.74-2.54,14.33,12.66ZM1652.9,1017.14c-15.47-5.74-17.93-19.29-5.48-30.11l198.45-172.5c12.46-10.83,25.79-6.56,29.63,9.49l65.5,273.44c3.84,16-5.67,24.47-21.14,18.73Zm246.32-180c-3.84-16,2.65-19.71,14.42-8.15l98.63,96.82c11.77,11.56,16.16,33.46,9.76,48.66l-45.68,108.4c-6.41,15.21-14.8,14.52-18.64-1.53Z"/>
    </g>
    <path class="die_numbers" id="d20_numbers" data-name="d20 numbers" d="M1774.32,1120.41a57.18,57.18,0,0,0-22.56-7.59,32.12,32.12,0,0,0-21.56,4.85,39.13,39.13,0,0,0-17.06,24.59,20.32,20.32,0,0,0,2.18,14.85c.62,1.12,1.34,2.18,2,3.27.21.35-.07,1.1-.45,1.16-1.41.24-2.83.49-4.24.7a20.65,20.65,0,0,0-13,7.44,28.81,28.81,0,0,0-5.87,11.42c-2.16,8.3-.09,15.49,6,21.48a27.73,27.73,0,0,0,2.93,2.47,43,43,0,0,0,16,7.28,28.77,28.77,0,0,0,8.61.85c-.06,0,.9,0,1.86,0a9.75,9.75,0,0,0,1.43-.14c12.56-2.18,20.56-9.72,24.73-21.47a14.18,14.18,0,0,0-1.21-12.49,9,9,0,0,1-.83-1.71c-.07-.2.17-.73.34-.76,1.25-.26,2.51-.49,3.77-.63a30.74,30.74,0,0,0,16.91-7.3,41.15,41.15,0,0,0,13.37-22.21c1.88-7.83-.33-14.51-5.82-20.23A33.83,33.83,0,0,0,1774.32,1120.41Zm-40,63.48a15.76,15.76,0,0,1-4.25,7.92,10.4,10.4,0,0,1-3.55,2.39,8.65,8.65,0,0,1-10-2.38,6,6,0,0,1-1.55-4.88,14,14,0,0,1,6.22-9.84,8.26,8.26,0,0,1,5-1.43,8.9,8.9,0,0,1,5.42,1.51A6.55,6.55,0,0,1,1734.34,1183.89Zm27-37.7a20.32,20.32,0,0,1-7.88,12.17,13,13,0,0,1-7.06,2.65,11.43,11.43,0,0,1-9.82-3.94,7.65,7.65,0,0,1-1.91-4.78,14.06,14.06,0,0,1,.81-5.63,22.83,22.83,0,0,1,5.93-9.12c2.32-2.1,5-3.36,7.85-3.13a13.92,13.92,0,0,1,8.45,2.6A8.36,8.36,0,0,1,1761.33,1146.19Zm81.29-106a30.08,30.08,0,0,0,15.77-7.52,48.59,48.59,0,0,0,8-9.47,80.35,80.35,0,0,0,6.56-12.23,131.18,131.18,0,0,0,9.21-30.66,56.69,56.69,0,0,0,.38-18.61c-1.57-9.57-6.31-17-14.83-21.76a42,42,0,0,0-15.83-5.16,28.15,28.15,0,0,0-21.51,6.13,42.26,42.26,0,0,0-7.31,7.57,72.7,72.7,0,0,0-7.51,12.23,138.5,138.5,0,0,0-9.66,26,89.48,89.48,0,0,0-2.75,17c.21,2.7.29,5.43.65,8.11,1.27,9.58,5.87,17.09,14.12,22.27a42,42,0,0,0,13.25,5.39A30.42,30.42,0,0,0,1842.62,1040.14ZM1827,1011.86a20.61,20.61,0,0,1-.56-6.65,64.27,64.27,0,0,1,1.83-10.84,169.39,169.39,0,0,1,8.46-24.38,56.32,56.32,0,0,1,5.23-9.66,19.57,19.57,0,0,1,4.55-4.88,8.86,8.86,0,0,1,11.06.64,9.32,9.32,0,0,1,2.88,5.89c.17,1.26.17,2.54.25,3.82a46.47,46.47,0,0,1-1.57,10.88,163.88,163.88,0,0,1-8.26,25,56.44,56.44,0,0,1-5.35,10.14,20.66,20.66,0,0,1-4.85,5.24,8.91,8.91,0,0,1-10.31-.07A8.48,8.48,0,0,1,1827,1011.86Zm-15-73.35c-.64,9.27-4,17.39-10.69,23.94a71,71,0,0,1-7,5.88,120.44,120.44,0,0,1-13.74,8.74c-5.42,3.06-10.89,6-16.33,9.08-1.11.61-2.16,1.31-3.2,1.94a1.84,1.84,0,0,0,1.31,1.39l8.57,3.07q8.12,2.9,16.23,5.81a7.52,7.52,0,0,1,1.71.83,1.11,1.11,0,0,1,.48,1.24c0,.16,0,.32-.09.47q-3.3,8.75-6.62,17.47a1.42,1.42,0,0,1-2,.81l-17.55-6.37-39.62-14.39c-1.2-.43-2.39-.89-3.58-1.35a1.57,1.57,0,0,1-.63-1.66c.1-.3.16-.62.28-.92.93-2.2,2-4.38,2.79-6.62a6.7,6.7,0,0,1,3.53-3.68q11.49-6,22.92-12c5.23-2.75,10.47-5.48,15.65-8.33,3.36-1.84,6.64-3.82,9.89-5.85a40.6,40.6,0,0,0,7.47-6,26.22,26.22,0,0,0,6.06-9.67,15,15,0,0,0,.87-5.17c0-3.56-1.63-6.4-5.9-7.79a8.74,8.74,0,0,0-9,1.83A20.39,20.39,0,0,0,1770,936c-.76,1.22-1.45,2.48-2.18,3.72a1.7,1.7,0,0,1-2,.92q-8.82-3.06-17.63-6.15a1.31,1.31,0,0,1-.6-2,49,49,0,0,1,9.93-13.42,30.47,30.47,0,0,1,13.68-7.58,26.38,26.38,0,0,1,3.29-.59c9.43-1,18.07,1.35,26.06,6.28a23.78,23.78,0,0,1,9.68,11A22.15,22.15,0,0,1,1812,938.51Zm-100.07-71.25q-17.54,14.88-35.09,29.76a25.23,25.23,0,0,1-4.07,3.18c-2.73-2-4.76-3.9-8.68-8.33a6.35,6.35,0,0,1-.41-2.8c-.65-13.56-1.27-27.13-2-40.69a78.51,78.51,0,0,0-1.9-14.23,23.46,23.46,0,0,0-7.3-12.65,19.63,19.63,0,0,0-3.93-2.71,9.82,9.82,0,0,0-11.49,1.85,7.52,7.52,0,0,0-1.79,8.37,18,18,0,0,0,2.88,5l2.55,3.31c-.21.46-.27.83-.48,1q-6.93,6.26-13.91,12.47a1.2,1.2,0,0,1-1.71-.08c-4.47-5.13-7.89-10.79-9.14-17.62a22.85,22.85,0,0,1,1.74-13.56,25.76,25.76,0,0,1,2.56-4.59,43,43,0,0,1,16.52-14.23,28,28,0,0,1,12.48-2.95,25.78,25.78,0,0,1,10.7,2.25c9.52,4.26,16.28,11.1,19.28,21.29a69.91,69.91,0,0,1,2.16,9.82c1,6.79,1.61,13.63,2,20.49a77.3,77.3,0,0,0,1,9c.4,0,.8.22,1,.09,1-.74,2.06-1.51,3-2.34q8.19-7,16.34-14.09c1.32-1.14,2.68-2.24,4-3.35a5.28,5.28,0,0,1,1.46.54q7.56,6.27,15.07,12.6c.93.78.9,1.47-.12,2.34Q1718.34,861.84,1711.93,867.26Zm-202.56,247.58a49.79,49.79,0,0,0,7.3,3.57,111.17,111.17,0,0,0,12.74,4.1,135.28,135.28,0,0,0,22.57,4.09,56.31,56.31,0,0,0,16.69-.7,26,26,0,0,0,9.3-3.63c4.84-3.21,6.92-7.84,6.67-13.49a22.19,22.19,0,0,0-7-15.31,31.61,31.61,0,0,0-6.93-5.06,51.92,51.92,0,0,0-12.5-4.73c-7.79-2-15.75-2.43-24.82-2.69-3.86.26-8.8.51-13.73,1a42.89,42.89,0,0,0-8.88,1.85,21.85,21.85,0,0,0-6,2.85,11.79,11.79,0,0,0-5,6.8c-1.64,6.68-.37,12.66,4.66,17.61A27,27,0,0,0,1509.37,1114.84Zm1.55-19a8.09,8.09,0,0,1,1.32-.57,18.8,18.8,0,0,1,5.16-.94,135,135,0,0,1,18.65.57c3.33.39,6.67.65,10,1.3a47.05,47.05,0,0,1,7.38,2,15.37,15.37,0,0,1,4.19,2.28,7.16,7.16,0,0,1,2.05,2.61,4.07,4.07,0,0,1-1.45,5.07,10.79,10.79,0,0,1-4.48,1.58,41.38,41.38,0,0,1-9.81.29,138.61,138.61,0,0,1-23.42-3.27c-2.17-.49-4.29-1.22-6.41-1.92a10.26,10.26,0,0,1-3.69-2.16,4.62,4.62,0,0,1-1.45-2.42A3.76,3.76,0,0,1,1510.92,1095.8Zm-45.34-137.86a22.88,22.88,0,0,1-3.34-9.41,28.05,28.05,0,0,1,3.74-18.89,43.9,43.9,0,0,1,5.47-7.25,26.12,26.12,0,0,1,12.59-7.5,68.49,68.49,0,0,1,10.83-1.95c4.13-.42,8.26-.81,12.4-1.23a2.88,2.88,0,0,0,2.59-1.32c-1-2.88-2-5.91-3-8.93q-1.9-5.67-3.85-11.33a2.17,2.17,0,0,1,.36-2.23c.2-.25.4-.5.62-.73q7.4-8.17,14.81-16.33a11.16,11.16,0,0,1,1.41-1.12,3.35,3.35,0,0,1,1.43,2q4.75,13.31,9.54,26.59,3.63,10.15,7.24,20.3c.48,1.34.91,2.7,1.39,4.14a12.61,12.61,0,0,1-1.42,1.35c-2.89,2-5.82,3.92-8.72,5.92a6.44,6.44,0,0,1-4,1.22c-7-.24-14.05-.41-21.08-.6l-12.94-.34a33,33,0,0,0-7.61.81,17.77,17.77,0,0,0-11.17,7.65,11,11,0,0,0-1.61,4,6.35,6.35,0,0,0,.78,4.61,2.46,2.46,0,0,0,2.39,1.32,8.42,8.42,0,0,0,2.77-.64c1.3-.59,2.51-1.38,3.73-2.08.31.21.73.33.81.57q1.82,5.43,3.56,10.89a1.66,1.66,0,0,1-.63,1.68,22,22,0,0,1-8.84,3.51C1471.42,963.34,1468,961.64,1465.58,957.94ZM1589,1168.61a9.18,9.18,0,0,1-.09,1.88c0,.39-.29.5-.67.55a5.17,5.17,0,0,1-2.71-.77q-18.74-7.93-37.48-15.87-14.55-6.17-29.09-12.33a17.33,17.33,0,0,0-2.26-.68c-.1,0-.29.14-.39.26a.48.48,0,0,0-.12.38,21.15,21.15,0,0,0,.93,2.19c2.31,4.38,4.65,8.74,7,13.11.52,1,1,2,1.45,3a.58.58,0,0,1-.26.82.63.63,0,0,1-.45,0,4.4,4.4,0,0,1-.87-.35l-11.36-6.19a6.55,6.55,0,0,1-3-3c-2.38-4.88-4.88-9.69-7.31-14.55a22.87,22.87,0,0,1-2.59-11.44c0-.09.1-1,.29-2a.84.84,0,0,1,.69-.48,11.28,11.28,0,0,1,2.3.45q13,4.14,26,8.32,26.43,8.51,52.85,17.06c6,1.94,4.72.72,5.67,6.71C1588.24,1160,1588.58,1164.32,1589,1168.61Zm-85.56-169.79-11,3.37a3.12,3.12,0,0,1-3.12-.65c-3.27-2.81-6.57-5.6-9.84-8.41a17.86,17.86,0,0,1-5.44-8.31c-.39-1.22-.74-2.45-1.09-3.67a1.71,1.71,0,0,1,.93-2c.54-.34,1.09-.67,1.64-1q33.33-18.95,66.66-37.86a9.24,9.24,0,0,1,3-1.34c1.72,2.76,4.08,9,7,18.56a7.23,7.23,0,0,1-1.36,1.13c-1.57.77-3.19,1.46-4.8,2.17l-51.66,22.9c-1,.46-2,1-3,1.47a.9.9,0,0,0,0,1.26c1.07.95,2.15,1.91,3.24,2.83l9.51,8.05a.9.9,0,0,1-.21,1.23A3.5,3.5,0,0,1,1503.47,998.82Zm505.41-36.49c-.25-.92-.62-1.81-1.07-3.1-1.22-.45-2.24-.88-3.3-1.21q-14.19-4.37-28.38-8.69c-5-1.52-5-1.51-9.84-.71-.32,0-.63.11-.94.18-4.7,1.05-4.28.28-3.06,5.17.15.62.36,1.22.52,1.84q2,7.16,3.91,14.32c.29,1.08.54,2.17.79,3.26a1.59,1.59,0,0,1-.77,1.6c-1.18.46-2.38.91-3.58,1.35-4.19,1.56-8.38,3.09-12.57,4.66-1.49.56-1.8,1.1-1.45,2.5,1,3.87,2,7.74,3,11.6.24.91.59,1.79,1,2.86a28.82,28.82,0,0,0,2.8-1c4.3-2.09,8.59-4.23,12.89-6.33a13.84,13.84,0,0,1,2.21-.86.9.9,0,0,1,.81.3,18.21,18.21,0,0,1,.94,2.17c.34.88.61,1.8,1,2.66a.86.86,0,0,0,.78.32q5.68-3,11.33-6.18a1.42,1.42,0,0,0,.67-1.65c-.34-1.54-.7-3.08-1.07-4.75,1-.6,2-1.19,3-1.68,5.29-2.63,10.63-5.15,15.88-7.86C2012.69,968.72,2011.35,971.4,2008.88,962.33Zm-14,2.07c-4.05,2.15-8.46,3.35-12.66,4.88-.35-.3-.7-.46-.78-.7-.7-2.26-1.38-4.52-2-6.8a1,1,0,0,1,1.34-1.34c4.76,1.08,9.52,2.18,14.24,3.39C1995,964.17,1995,964.36,1994.89,964.4Zm-128.34,283.13a30.74,30.74,0,0,0-10.13-9.32,22.42,22.42,0,0,0-11.43-3c-6.69,0-12.43,2.52-17.54,6.65a12.89,12.89,0,0,0-3.59,4.43,8.54,8.54,0,0,0,.77,9.45,15.24,15.24,0,0,0,5.11,4.27c8.22,4.37,16.24,3.91,24-1.22,2-1.33,2.46-2.07,3.45-5a4.12,4.12,0,0,1,1.19.73,16.41,16.41,0,0,1,1.54,2.41,2.9,2.9,0,0,1-.93,3.82,5.74,5.74,0,0,1-4.9,1.44,7.7,7.7,0,0,0-5.85,1.4c-1.08.68-2.21,1.28-3.27,2a5.2,5.2,0,0,0-.92,1.1,8.1,8.1,0,0,0,1.33.72,12.45,12.45,0,0,0,2.33.52c6.77.73,12.53-1.68,17.66-5.85a12,12,0,0,0,2.2-2.51,8.52,8.52,0,0,0,1.11-7.76A15.6,15.6,0,0,0,1866.55,1247.53Zm-16.24,6.1a8.11,8.11,0,0,1-7.21,1.3,11.05,11.05,0,0,1-4.55-2.47,7.58,7.58,0,0,1-1.16-1.48,3.19,3.19,0,0,1,.51-3.92,7.64,7.64,0,0,1,1.87-1.39,7.82,7.82,0,0,1,3.71-.84h0a9,9,0,0,1,5.93,1.9,11.21,11.21,0,0,1,1.57,1.52A3.53,3.53,0,0,1,1850.31,1253.63Zm111.55-312.81c-4.61.46-9.22,1-13.83,1.43-2.39.24-4.78.43-7.17.59-1.49.11-2.17-.35-2.5-1.63q-1.44-5.57-2.84-11.15c-.33-1.34.27-2,1.75-2.11.48,0,1,0,1.44,0l2.88,0,38.38-.25c1.44,0,2.87-.1,4.31-.15.39,0,.64-.18.64-.56a1.41,1.41,0,0,0-.16-.84c-.82-1-1.67-1.93-2.53-2.88l-6.44-7.08c-.09-.1-.06-.3-.07-.46,0-.34.18-.55.59-.54s1,.06,1.43.11c1.75.19,3.5.5,5.25.53a6.88,6.88,0,0,1,5.44,2.46c2.31,2.65,4.81,5.14,7.21,7.71a19.39,19.39,0,0,1,4.92,9.7.74.74,0,0,1,0,.21c0,.23-.12.46-.16.69l-.42.23a1.43,1.43,0,0,1-.43.17c-2.22.3-4.44.61-6.66.84q-8.6.9-17.18,1.74C1971.1,940,1966.48,940.36,1961.86,940.82Zm-65.38,297.07a1.42,1.42,0,0,1-.28.89,15.8,15.8,0,0,1-1.15,1.54c-1.64,2-3.31,3.88-4.94,5.85a25.15,25.15,0,0,1-8.26,6.43,1.71,1.71,0,0,1-2.46-.66c-.48-.64-1-1.29-1.4-2q-8.13-11.84-16.25-23.7c-.63-.91-1.13-1.9-1.67-2.81a4.05,4.05,0,0,1,.7-.84c3.39-2.1,6.79-4.2,10.19-6.27a1.42,1.42,0,0,1,2,.55c.24.42.48.84.69,1.27.43.85.84,1.72,1.25,2.58q4.39,9,8.79,18.09a18.44,18.44,0,0,0,1.48,2.44.86.86,0,0,0,.82.1,22.64,22.64,0,0,0,2-2.05c2-2.28,4-4.58,6-6.85a.85.85,0,0,1,.79,0A14.16,14.16,0,0,1,1896.48,1237.89Zm-156-490.21a25.28,25.28,0,0,0,6.9,2,113,113,0,0,0,26.75,1.08,34.53,34.53,0,0,0,6.09-1.2,7.51,7.51,0,0,0,3.69-2.12,2.51,2.51,0,0,0-.31-3.78c-1.06-.7-2.2-1.27-3.3-1.91-.07-.05-.07-.27,0-.4s.07-.36.17-.41a12.42,12.42,0,0,1,1.3-.56c.58-.23,1.19-.41,1.76-.68a1.22,1.22,0,0,0,.15-2,6.88,6.88,0,0,0-1.61-1,29.92,29.92,0,0,0-4.15-1.12,81,81,0,0,0-17.66-1,9.86,9.86,0,0,0-1.44.09c-1.71.37-3.43.71-5.11,1.2a3.07,3.07,0,0,0-1.41,1.18c-.45.63.19,1.16.41,1.72,0,.11,0,.26-.09.55l-2.74.47c-1.1.19-2.21.34-3.3.56a15.89,15.89,0,0,0-6.6,2.67C1737.84,744.51,1738.06,746.51,1740.53,747.68ZM1765,737a1.92,1.92,0,0,1,.84-.37c.77-.11,1.56-.15,2-.18,1.75,0,3.18,0,4.4.87a1.12,1.12,0,0,1,.29.69c0,.1-.16.27-.29.35a3.09,3.09,0,0,1-.83.42,9.61,9.61,0,0,1-6.43-.41c-.24-.11-.54-.45-.53-.66S1764.71,737.16,1765,737Zm-9,6.54a4.54,4.54,0,0,1,1.43-1.15,18.28,18.28,0,0,1,11.67,0,3.47,3.47,0,0,1,.78.53,1.48,1.48,0,0,1,.18,1.72,3.27,3.27,0,0,1-2,1.21c-1.57.21-3.14.35-4.81.53-1.81-.22-3.71-.39-5.57-.71a4.87,4.87,0,0,1-1.63-.9A1,1,0,0,1,1756,743.52Zm-51.75,2.28c0-.25.12-.61.31-.7a19.35,19.35,0,0,1,2.18-1q9.57-3.78,19.15-7.56a8.42,8.42,0,0,0,1.66-.86c.16-.1.11-.53.17-1-4.16,0-8.3.55-12.73.43.47-.52.7-1,1.06-1.12a17.73,17.73,0,0,1,4.6-1.19c8-.28,16-.74,24-.09a1,1,0,0,1,.45.14.74.74,0,0,1,.21.41.7.7,0,0,1,0,.43c-.36.82-1.22,1-1.9,1.34-6.94,3.59-13.94,7.1-20.86,10.74a11,11,0,0,1-6.44,1.28c-3.81-.37-7.67-.19-11.44-1C1704.42,746.07,1704.19,745.88,1704.21,745.8Z"/>
  </g>
  <g id="d12_die" data-name="d12 die" class="die" transform="matrix(1, 0, 0, 1, -719.60144, -767.619629)">
    <g id="d12_geometry" data-name="d12 geometry">
      <path class="die_color" d="M 1207.53 841.82 C 1199.4 827.47 1180.53 810.06 1165.53 803.13 L 1114.08 779.36 C 1099.08 772.44 1073.35 767.17 1056.86 767.65 L 914.5 771.76 C 898.01 772.23 873.91 780.97 860.94 791.17 L 848.37 801.05 C 835.37 811.25 818.37 831.45 810.43 845.94 L 738.9 977.1 C 731 991.59 723 1016.85 721 1033.23 L 720 1041.94 C 718.07 1058.33 723.34 1083.38 731.69 1097.6 L 815.25 1239.8 C 823.61 1254.03 841.58 1273.3 855.19 1282.62 L 884.58 1302.76 C 898.19 1312.09 922.83 1319.76 939.33 1319.76 L 1099.2 1319.76 C 1115.7 1319.76 1136.46 1308.38 1145.34 1294.47 L 1209.44 1194.01 C 1218.31 1180.11 1231.77 1156.73 1239.34 1142.07 L 1291.47 1041.07 C 1299.04 1026.41 1298.59 1002.67 1290.47 988.31 L 1207.53 841.82 Z"/>
      <path class="die_edges" d="M1207.53,841.82c-8.13-14.35-27-31.76-42-38.69l-51.45-23.77c-15-6.92-40.73-12.19-57.22-11.71l-142.36,4.11c-16.49.47-40.59,9.21-53.56,19.41l-12.57,9.88c-13,10.2-30,30.4-37.94,44.89L738.9,977.1C731,991.59,723,1016.85,721,1033.23l-1,8.71c-1.93,16.39,3.34,41.44,11.69,55.66l83.56,142.2c8.36,14.23,26.33,33.5,39.94,42.82l29.39,20.14c13.61,9.33,38.25,17,54.75,17H1099.2c16.5,0,37.26-11.38,46.14-25.29l64.1-100.46c8.87-13.9,22.33-37.28,29.9-51.94l52.13-101c7.57-14.66,7.12-38.4-1-52.76ZM877,806.37c9.14-6,30.12-11.34,46.61-11.81l127.53-3.69c16.49-.47,42.24,4.8,57.22,11.72l14.86,6.87c15,6.92,13.92,14.81-2.36,17.53l-69.32,11.61c-16.28,2.72-42.92,2.79-59.21.14L890,822.12C873.73,819.48,867.89,812.39,877,806.37ZM825.1,860.69c7.64-14.62,27.22-24.42,43.51-21.78l113.93,18.5c16.29,2.64,29.85,18.3,30.14,34.8l2.17,123.15c.29,16.49-11.34,36.43-25.85,44.29l-107.85,58.48c-14.51,7.86-34.91,3.83-45.34-9l-66.75-81.81c-10.43-12.78-12.71-35.21-5.06-49.83Zm44.84,403.43c-12.87-8.82-30.24-27.67-38.6-41.9l-75.29-128.14c-8.36-14.23-14.19-34.48-12.95-45s10.78-8.67,21.21,4.11L824.53,1127c10.44,12.78,23.81,35.85,29.72,51.25l28.34,73.89C888.5,1267.55,882.81,1272.94,869.94,1264.12Zm264.28,7.14c-8.87,13.91-29.63,25.29-46.13,25.29h-137c-16.5,0-34.83-12.6-40.74-28l-34.82-90.76c-5.91-15.4,1.12-34.44,15.63-42.31L998.91,1077c14.51-7.86,38-7.46,52.25.89l124.31,73a28.77,28.77,0,0,1,9.73,40.48Zm90.85-149.17a28.17,28.17,0,0,1-39.63,11.46l-124.19-72.9c-14.23-8.35-26.11-28.68-26.4-45.18l-2.17-123.35c-.29-16.5,12.79-32.22,29.06-35l87.51-14.65c16.27-2.72,36.24,6.8,44.37,21.16l71.45,126.2c8.13,14.36,8.59,38.1,1,52.77Z"/>
      <path class="die_edges_outline" d="M1207.53,841.82c-8.13-14.35-27-31.76-42-38.69l-51.45-23.77c-15-6.92-40.73-12.19-57.22-11.71l-142.36,4.11c-16.49.47-40.59,9.21-53.56,19.41l-12.57,9.88c-13,10.2-30,30.4-37.94,44.89L738.9,977.1C731,991.59,723,1016.85,721,1033.23l-1,8.71c-1.93,16.39,3.34,41.44,11.69,55.66l83.56,142.2c8.36,14.23,26.33,33.5,39.94,42.82l29.39,20.14c13.61,9.33,38.25,17,54.75,17H1099.2c16.5,0,37.26-11.38,46.14-25.29l64.1-100.46c8.87-13.9,22.33-37.28,29.9-51.94l52.13-101c7.57-14.66,7.12-38.4-1-52.76ZM877,806.37c9.14-6,30.12-11.34,46.61-11.81l127.53-3.69c16.49-.47,42.24,4.8,57.22,11.72l14.86,6.87c15,6.92,13.92,14.81-2.36,17.53l-69.32,11.61c-16.28,2.72-42.92,2.79-59.21.14L890,822.12C873.73,819.48,867.89,812.39,877,806.37ZM825.1,860.69c7.64-14.62,27.22-24.42,43.51-21.78l113.93,18.5c16.29,2.64,29.85,18.3,30.14,34.8l2.17,123.15c.29,16.49-11.34,36.43-25.85,44.29l-107.85,58.48c-14.51,7.86-34.91,3.83-45.34-9l-66.75-81.81c-10.43-12.78-12.71-35.21-5.06-49.83Zm44.84,403.43c-12.87-8.82-30.24-27.67-38.6-41.9l-75.29-128.14c-8.36-14.23-14.19-34.48-12.95-45s10.78-8.67,21.21,4.11L824.53,1127c10.44,12.78,23.81,35.85,29.72,51.25l28.34,73.89C888.5,1267.55,882.81,1272.94,869.94,1264.12Zm264.28,7.14c-8.87,13.91-29.63,25.29-46.13,25.29h-137c-16.5,0-34.83-12.6-40.74-28l-34.82-90.76c-5.91-15.4,1.12-34.44,15.63-42.31L998.91,1077c14.51-7.86,38-7.46,52.25.89l124.31,73a28.77,28.77,0,0,1,9.73,40.48Zm90.85-149.17a28.17,28.17,0,0,1-39.63,11.46l-124.19-72.9c-14.23-8.35-26.11-28.68-26.4-45.18l-2.17-123.35c-.29-16.5,12.79-32.22,29.06-35l87.51-14.65c16.27-2.72,36.24,6.8,44.37,21.16l71.45,126.2c8.13,14.36,8.59,38.1,1,52.77Z"/>
    </g>
    <path class="die_numbers" id="d12_numbers" data-name="d12 numbers" d="M918.91,939.58a68,68,0,0,0-5.69-9.44,41.89,41.89,0,0,0-7.09-7.78c-6.53-5.41-14-7.09-22-4.72C869.39,922,859.45,931.38,855,946.18a41,41,0,0,0-1.2,18.5A53.37,53.37,0,0,0,859,981.05a30.6,30.6,0,0,0,7.3,9.42,20,20,0,0,0,10.78,4.81,22.21,22.21,0,0,0,9-.85,35.64,35.64,0,0,0,12.2-6.49,22.78,22.78,0,0,0,5.79-7,12,12,0,0,0,1.63-5.93,16.68,16.68,0,0,1,.39-5c.41.4.83.62,1,1a78.15,78.15,0,0,1,3.09,12.06,45.47,45.47,0,0,1,.62,10,15.89,15.89,0,0,1-1.07,5.15,11.7,11.7,0,0,1-8.58,7.62,5.91,5.91,0,0,1-5-1,16.34,16.34,0,0,1-2.77-2.62c-.73-.84-1.27-1.84-1.92-2.75a1.28,1.28,0,0,0-1.7-.3l-18.61,10.92-.4.27a1.44,1.44,0,0,0-.6,1.66,35.1,35.1,0,0,0,3.47,6.83,30.52,30.52,0,0,0,5.16,6.28,21.24,21.24,0,0,0,11.92,5.67,22,22,0,0,0,9.49-.85c10.81-3.35,19.35-9.69,25-19.63a45.15,45.15,0,0,0,5.67-18.18,76.14,76.14,0,0,0-1.48-23.84A123.13,123.13,0,0,0,918.91,939.58ZM898,962.71a11.69,11.69,0,0,1-7.66,6.7,8.17,8.17,0,0,1-6.86-1.1,12.2,12.2,0,0,1-3.69-3.71,26,26,0,0,1-4.31-13,14.92,14.92,0,0,1,1-6.11,11.88,11.88,0,0,1,7.14-7.29,8.37,8.37,0,0,1,8.17,1.07,12.12,12.12,0,0,1,3.31,3.42,24.85,24.85,0,0,1,4.22,14.25A13.55,13.55,0,0,1,898,962.71Zm303.81,10.93a27.62,27.62,0,0,1,1.15,9.47,39.73,39.73,0,0,1-5.28,17.76,33.54,33.54,0,0,1-9.3,10.22A64.06,64.06,0,0,1,1179,1017c-4,2-8,4-12,5.94-3.45,1.67-6.93,3.28-10.4,4.93a1,1,0,0,0-.22,1.55c.81.51,1.63,1,2.46,1.49q8.7,5.07,17.42,10.12c.82.48,1.64,1,2.44,1.5a1.52,1.52,0,0,1,.53,1.7q-3.29,8-6.6,16a1.09,1.09,0,0,1-1.58.53c-.7-.37-1.41-.75-2.1-1.15l-45.53-26.65a20.92,20.92,0,0,1-2.34-1.64c-.2-.16-.23-.56-.3-.86a.75.75,0,0,1,0-.47c1.07-2.67,2.11-5.35,3.26-8a3.14,3.14,0,0,1,1.3-1.33c1.11-.63,2.3-1.12,3.46-1.65,9.18-4.15,18.37-8.26,27.52-12.45,3.49-1.59,6.92-3.31,10.32-5.08a39.51,39.51,0,0,0,7.18-4.78,24.89,24.89,0,0,0,7.87-11.8,15.22,15.22,0,0,0,.65-5.68,9,9,0,0,0-7.1-8,5.71,5.71,0,0,0-3.73.51,11.26,11.26,0,0,0-4.26,3.78c-1.18,1.71-2.21,3.52-3.3,5.28a1.54,1.54,0,0,1-2,.75q-7.51-4.26-15-8.54a1,1,0,0,1-.31-.31c-.09-.13-.17-.28-.27-.4a4,4,0,0,1,.18-.93,42.75,42.75,0,0,1,8.73-12.52c7.38-7.23,16-8.91,25.62-5.42a38.32,38.32,0,0,1,12.31,7.3A27.93,27.93,0,0,1,1201.77,973.64Zm-129,179.59c-.8.53-1.6,1.06-2.42,1.56l-16.83,10.13q-21.55,13-43.1,26c-.93.57-2.06.95-2.52,2.12.67,1.32,1.94,2.07,3,3q10.55,9,21.14,18.06c.73.62,1.47,1.24,2.18,1.89a1.53,1.53,0,0,1,.16,2.14q-6.12,8.88-12.26,17.74c-.08.13-.24.2-.49.4a3.6,3.6,0,0,1-1.11-.48c-.74-.61-1.41-1.3-2.09-2L983,1198.71c-.79-.79-1.56-1.6-2.31-2.42a1.1,1.1,0,0,1-.12-1.34,9.84,9.84,0,0,1,1.12-1.53c1.9-2.17,3.85-4.28,5.7-6.49a16.2,16.2,0,0,1,4.4-3.63c5.8-3.38,11.57-6.81,17.34-10.22l43.74-25.84c1.1-.65,2.24-1.24,3.3-2a3.2,3.2,0,0,1,3.58-.17c4.24,2.23,8.52,4.39,12.77,6.58A.93.93,0,0,1,1072.77,1153.23ZM1134,935.08q-16.39,39.34-32.8,78.68c-.49,1.17-1,2.35-1.52,3.51a1.42,1.42,0,0,1-2,.56q-7.23-4.23-14.44-8.52c-.24-.15-.36-.5-.56-.78,0-1.47.85-2.7,1.4-4q11.06-26.52,22.14-53c.74-1.76,1.39-3.56,2.06-5.35.15-.39-.33-1-.77-1a13.8,13.8,0,0,0-1.44,0c-4,.46-7.92,1-11.89,1.42-2.06.23-4.16.26-6.19.62-4.28.78-4.25,0-2.81-3.34,2.09-4.84,4.09-9.71,6.1-14.58a3.46,3.46,0,0,1,2.85-2.24c6.15-1,12.29-2,18.44-3a37.35,37.35,0,0,1,3.82-.32,22,22,0,0,1,12.43,2.82c1.8,1,3.63,2,5.43,3,1.21.69,1.42,1.41.87,2.81C1134.73,933.31,1134.35,934.2,1134,935.08Zm-289.91,245.2a18.6,18.6,0,0,1,.4,7.13,7.13,7.13,0,0,1-7.24,6.31,11.42,11.42,0,0,1-4.63-1A24.79,24.79,0,0,1,827,1189a61.37,61.37,0,0,1-11.16-13.06,3.2,3.2,0,0,1-.24-1.06,16.38,16.38,0,0,1,5.16-3.19,1.49,1.49,0,0,1,1.28.36c.9.91,1.61,2,2.51,2.89,1.24,1.24,2.54,2.41,3.89,3.53a5,5,0,0,0,1.72.78,2.18,2.18,0,0,0,2.84-1.77,8.47,8.47,0,0,0-.53-4.23,26.83,26.83,0,0,0-6.29-9.52,8.41,8.41,0,0,0-2.31-1.67,6.12,6.12,0,0,0-1.34-.41c-.47-.09-.95-.17-1.41-.27a2.61,2.61,0,0,1-1.81.2,4,4,0,0,1-2-2c-1.47-2.47-3-4.87-4.64-7.26-.87-1.3-1.21-2.43-.23-3.94s.6-3.15.08-4.66a25,25,0,0,0-6.94-10.74,5.79,5.79,0,0,0-1.65-.92,1.88,1.88,0,0,0-2.56,1.89,13.69,13.69,0,0,0,1.44,4.54c.69,1.43,1.44,2.84,2.15,4.27a1.54,1.54,0,0,1-.39,1.73c-1.37.82-2.74,1.65-4.12,2.44a1.28,1.28,0,0,1-2-.57,60.8,60.8,0,0,1-7.34-17.09,18.37,18.37,0,0,1-.4-6.18,6.89,6.89,0,0,1,2.61-4.94,6.81,6.81,0,0,1,6.37-1,12.53,12.53,0,0,1,4.65,2.41,52.85,52.85,0,0,1,5,4.5,58.83,58.83,0,0,1,10,15.15,19.23,19.23,0,0,1,2.1,10.19,1.42,1.42,0,0,0,1.31,1.71,15.08,15.08,0,0,1,7.24,4.46,34.35,34.35,0,0,1,2.56,2.84,68,68,0,0,1,9.56,16A49.78,49.78,0,0,1,844.07,1180.28ZM1009.58,803a12.74,12.74,0,0,1-1.21-2c-.08-.16.19-.64.41-.74a3.82,3.82,0,0,1,1.38-.28,59,59,0,0,1,7.74.1c1.15,1.38,2.29,2.7,3.39,4.06,3.34,4.07,6.66,8.16,10,12.24a26.42,26.42,0,0,0,2.22,2.5,1.55,1.55,0,0,0,1.31.26c1.48-.61,2.89-1.36,4.34-2s2.74-1.65,4.82-1.94a51.29,51.29,0,0,1,5.8,6.52,5.51,5.51,0,0,1-1,1.13c-1.9,1.18-3.85,2.28-5.74,3.46a13.38,13.38,0,0,1-6.31,2.07c-2.38.15-4.78.15-7.17.1a3.1,3.1,0,0,1-1.64-.85,8.33,8.33,0,0,1-1.2-1.49Q1018.14,814.56,1009.58,803Zm-29.24,21.64q-4.82-10.14-9.62-20.28c-.41-.86-.78-1.74-1.15-2.61a1,1,0,0,1,.74-1.4l7.16-.13a2.42,2.42,0,0,1,2.27,1.44c2.37,4.33,4.69,8.69,7.1,13,3.31,5.9,2,5.41,8.06,2.78,1.45-.63,2.91-1.26,4.38-1.87a1.47,1.47,0,0,1,1.7.55,32,32,0,0,1,3.37,5.57c-.18.27-.23.45-.35.53a52.15,52.15,0,0,1-10.11,5.31,18.46,18.46,0,0,1-7,1C981.89,828.52,982.34,828.88,980.34,824.65Z"/>
  </g>
  <g id="d10_die" data-name="d10 die" class="die" transform="matrix(1.140784, 0, 0, 1.140784, -128.678177, -937.558594)">
    <g id="d10_Geometry" data-name="d10 Geometry">
      <path class="die_color" d="M 317.64 824.06 C 301.23 822.33 279.46 821.42 269.27 822.06 C 259.08 822.7 242.05 825.82 231.43 829.06 C 220.81 832.3 205.24 839.67 196.83 845.41 C 188.42 851.15 170.74 864 157.56 873.88 L 136.45 889.79 C 123.28 899.72 112.63 921.34 112.8 937.84 L 115.8 1233.57 C 115.97 1250.07 129.48 1265.42 145.8 1267.69 L 407.09 1304 C 423.44 1306.27 444.86 1306.49 454.7 1304.48 C 464.54 1302.47 480.32 1296.88 489.77 1292.06 C 499.22 1287.24 516.96 1278.86 529.21 1273.44 C 541.46 1268.02 556.42 1258.81 562.44 1252.98 C 568.46 1247.15 576.36 1238.98 579.97 1234.72 C 583.58 1230.46 586.55 1213.55 586.55 1197.05 L 586.55 882.33 C 586.55 865.83 573.12 850.92 556.71 849.19 L 317.64 824.06 Z"/>
      <path class="die_edges" d="M317.64,824.06c-16.41-1.73-38.18-2.64-48.37-2s-27.22,3.76-37.84,7-26.19,10.61-34.6,16.35S170.74,864,157.56,873.88l-21.11,15.91c-13.17,9.93-23.82,31.55-23.65,48.05l3,295.73c.17,16.5,13.68,31.85,30,34.12L407.09,1304c16.35,2.27,37.77,2.49,47.61.48s25.62-7.6,35.07-12.42,27.19-13.2,39.44-18.62,27.21-14.63,33.23-20.46,13.92-14,17.53-18.26,6.58-21.17,6.58-37.67V882.33c0-16.5-13.43-31.41-29.84-33.14ZM203.9,860.89c12.15-6.22,22.51-10.29,47.95-16.64,5.38-1.34,23-4.39,30.37-3.73l10,.9c7.48.73,18.41,1.85,24.3,2.48s17.42,1.76,25.64,2.51,28.34,3,44.72,4.9l75.85,9c16.39,1.94,16.42,5.38.08,7.64l-229.5,31.8c-16.34,2.26-36.47-2.77-44.72-11.17l-2.76-2.8s-2.51-4.06-2.52-4.09c-.86-2.23-1.15-4.9,1.49-7C192.05,868.75,199.43,863.18,203.9,860.89Zm324.24,18.17c16.34-2.27,23.69,8,16.33,22.73l-116.9,234.56c-7.37,14.76-23.8,18.25-36.52,7.75,0,0-9.41-7.77-58.7-35.34-31.14-17.41-45.76-24.75-45.76-24.75-14.74-7.41-29.84-26.63-33.54-42.71,0,0-8.08-35-14.81-58A297.16,297.16,0,0,0,226.31,950c-6.7-15.08,1.19-29.27,17.53-31.54Zm-394,70.65c-.17-16.5,7.09-35.67,16.13-42.61l5.79-3.75c6.51-4.21,14.64-8,24.85-2.09,7.44,4.31,12.21,20.76,20.62,39.5,24.85,55.39,33.69,104.76,33.69,104.76,2.91,16.25-2.45,40.59-11.92,54.1l-69.14,98.66c-9.47,13.51-17.36,11.07-17.53-5.43Zm301.73,336c-1.94.4-16.91-1.14-33.25-3.41l-228.07-31.69c-16.34-2.27-22-15.18-12.5-28.7l75.13-107.19c9.46-13.51,29.18-18.33,43.82-10.7,0,0,107.19,55.87,121.24,75.61,16.05,22.55,29.76,76.29,29.76,76.29C436.08,1271.85,437.82,1285.26,435.87,1285.66Zm129.39-100.38c0,16.5-6.58,36.85-14.62,45.23s-19,17.16-24.31,19.52-22.13,9.54-37.33,16l-2.79,1.18c-15.2,6.41-30.79-1-34.63-16.57l-4.9-15.35c-6.25-19.58-8.39-24.74-8.39-24.74-6.35-15.23-5.52-39.77,1.84-54.54l111.75-224.2c7.36-14.77,13.38-13.35,13.38,3.15Z"/>
      <path class="die_edges_outline" d="M317.64,824.06c-16.41-1.73-38.18-2.64-48.37-2s-27.22,3.76-37.84,7-26.19,10.61-34.6,16.35S170.74,864,157.56,873.88l-21.11,15.91c-13.17,9.93-23.82,31.55-23.65,48.05l3,295.73c.17,16.5,13.68,31.85,30,34.12L407.09,1304c16.35,2.27,37.77,2.49,47.61.48s25.62-7.6,35.07-12.42,27.19-13.2,39.44-18.62,27.21-14.63,33.23-20.46,13.92-14,17.53-18.26,6.58-21.17,6.58-37.67V882.33c0-16.5-13.43-31.41-29.84-33.14ZM203.9,860.89c12.15-6.22,22.51-10.29,47.95-16.64,5.38-1.34,23-4.39,30.37-3.73l10,.9c7.48.73,18.41,1.85,24.3,2.48s17.42,1.76,25.64,2.51,28.34,3,44.72,4.9l75.85,9c16.39,1.94,16.42,5.38.08,7.64l-229.5,31.8c-16.34,2.26-36.47-2.77-44.72-11.17l-2.76-2.8s-2.51-4.06-2.52-4.09c-.86-2.23-1.15-4.9,1.49-7C192.05,868.75,199.43,863.18,203.9,860.89Zm324.24,18.17c16.34-2.27,23.69,8,16.33,22.73l-116.9,234.56c-7.37,14.76-23.8,18.25-36.52,7.75,0,0-9.41-7.77-58.7-35.34-31.14-17.41-45.76-24.75-45.76-24.75-14.74-7.41-29.84-26.63-33.54-42.71,0,0-8.08-35-14.81-58A297.16,297.16,0,0,0,226.31,950c-6.7-15.08,1.19-29.27,17.53-31.54Zm-394,70.65c-.17-16.5,7.09-35.67,16.13-42.61l5.79-3.75c6.51-4.21,14.64-8,24.85-2.09,7.44,4.31,12.21,20.76,20.62,39.5,24.85,55.39,33.69,104.76,33.69,104.76,2.91,16.25-2.45,40.59-11.92,54.1l-69.14,98.66c-9.47,13.51-17.36,11.07-17.53-5.43Zm301.73,336c-1.94.4-16.91-1.14-33.25-3.41l-228.07-31.69c-16.34-2.27-22-15.18-12.5-28.7l75.13-107.19c9.46-13.51,29.18-18.33,43.82-10.7,0,0,107.19,55.87,121.24,75.61,16.05,22.55,29.76,76.29,29.76,76.29C436.08,1271.85,437.82,1285.26,435.87,1285.66Zm129.39-100.38c0,16.5-6.58,36.85-14.62,45.23s-19,17.16-24.31,19.52-22.13,9.54-37.33,16l-2.79,1.18c-15.2,6.41-30.79-1-34.63-16.57l-4.9-15.35c-6.25-19.58-8.39-24.74-8.39-24.74-6.35-15.23-5.52-39.77,1.84-54.54l111.75-224.2c7.36-14.77,13.38-13.35,13.38,3.15Z"/>
    </g>
    <path class="die_numbers" id="d10_numbers" data-name="d10 numbers" d="M412.11,958.42a27.44,27.44,0,0,0-16.41-5.89,47.14,47.14,0,0,0-16.5,2.53,116.63,116.63,0,0,0-33.85,17.67,57.51,57.51,0,0,0-7.79,7.09,38.24,38.24,0,0,0-5.62,7.75,26.28,26.28,0,0,0-1.54,22.68,39.22,39.22,0,0,0,8.74,13.63c6,6.19,13.42,9,21.93,9.2a47.8,47.8,0,0,0,10-1.38,64.63,64.63,0,0,0,14.75-5.6,123.07,123.07,0,0,0,25.59-17.67,59.08,59.08,0,0,0,7.52-8,37.2,37.2,0,0,0,4.68-7.8,22.93,22.93,0,0,0,.24-18.64A37.8,37.8,0,0,0,412.11,958.42Zm-5.16,23a14,14,0,0,1-3,4.31,62.14,62.14,0,0,1-5.26,4.88,136.24,136.24,0,0,1-25.08,15.69,39.62,39.62,0,0,1-9.92,3.41c-1.09.2-2.21.3-2.7.37-2.76,0-4.75-.59-6.41-2a8,8,0,0,1-2.38-9.89,13.94,13.94,0,0,1,2.95-4.32,64,64,0,0,1,5.66-5.15A132.6,132.6,0,0,1,388.06,973a30.81,30.81,0,0,1,9.64-2.66c3.57-.31,6.63.73,8.71,3.86A7.16,7.16,0,0,1,407,981.43ZM524.6,1079.9a18.43,18.43,0,0,0-2.44.3c-1,1.29-1.93,2.56-2.87,3.85-12.07,16.51-24.08,33.07-36.24,49.52a28.06,28.06,0,0,0-5.49,11.52c-.45,2.35-1.17,4.64-1.75,7a1.16,1.16,0,0,0,.68,1.11c1.58.24,3.15.55,4.74.69,4.93.46,9.87.84,14.81,1.29,2.54.23,5.08.54,7.62.84a5.47,5.47,0,0,1,1.17.48c-.05,2.81-1,5.22-1.54,7.71-.94,4.21-2,8.38-3.06,12.57-.15.61-.29,1.24-.42,1.86a1.23,1.23,0,0,0,.9,1.45c5,1,10.13,1.34,15.22,1.86a.79.79,0,0,0,.45-.1c.27-.15.62-.3.73-.54a12,12,0,0,0,.78-2.23c1.36-5.92,2.66-11.85,4-17.76.25-1.07.67-2.09,1-3.21a19.31,19.31,0,0,1,2-.19c1.44,0,2.88.17,4.31.19a8.26,8.26,0,0,0,1.7-.28,6,6,0,0,0,.49-1q2-8.88,3.91-17.77a3.83,3.83,0,0,0,.07-1.43,1,1,0,0,0-.59-.64c-1.73-.27-3.48-.47-5.22-.69a2.07,2.07,0,0,1-1.7-1.1c1-4.35,2-8.86,3-13.37s2.08-9,3.11-13.54c1.06-4.67,2.15-9.34,3.13-14,.94-4.52,2.35-8.94,2.81-13.49-.42-.23-.69-.52-1-.52Q531.78,1080,524.6,1079.9Zm-13.71,53a9.74,9.74,0,0,1-.81,1.76,14.54,14.54,0,0,1-1.92.17c-1.75-.09-3.5-.18-5.24-.36-5.3-.55-5.64-.15-2.35-4.66s6.53-9,9.77-13.54c1.58-2.2,3.09-4.43,4.65-6.64.36-.51.79-1,1.24-1.51.23.31.51.53.48.68Q513.83,1120.88,510.89,1132.92Zm-302-122.21a43.85,43.85,0,0,1-.82,12.87,69.43,69.43,0,0,1-6.33,17.52,1,1,0,0,1-1.58.33c-.11-.12-.24-.21-.34-.34-1.63-2-3.25-3.94-4.87-5.93a2.49,2.49,0,0,1-.34-2.69,47.69,47.69,0,0,0,2.33-7.3,18.92,18.92,0,0,0,.41-5.71,6.79,6.79,0,0,0-1.86-4.31,3.68,3.68,0,0,0-4.39-.77,10.33,10.33,0,0,0-2.61,2.06A23.65,23.65,0,0,0,183,1028.5a12.43,12.43,0,0,0,2.4,10,1.9,1.9,0,0,1,.22,2.23q-3.08,5.68-6.21,11.35c-.14.25-.48.4-.72.6-1,.11-1.76-.63-2.65-.9a4.07,4.07,0,0,0-3.26.22,10.32,10.32,0,0,0-2.4,1.56,20,20,0,0,0-6.06,12.2A6.25,6.25,0,0,0,165,1069a3.18,3.18,0,0,0,4.09,1.48,8.21,8.21,0,0,0,3-2.36c1.21-1.49,2.3-3.06,3.45-4.6a1.35,1.35,0,0,1,1.7-.35,38.13,38.13,0,0,1,6.67,6.1,40,40,0,0,1-12.21,14.48,14.3,14.3,0,0,1-2.06,1.22c-1,.47-2.06.85-3.11,1.22a10.73,10.73,0,0,1-8.8-.87,14.46,14.46,0,0,1-7.25-8.55,22.67,22.67,0,0,1-.65-11.38,46.55,46.55,0,0,1,9.13-20.36c3-4,6.76-6.78,12-6.84a.8.8,0,0,0,.74-1c-.07-.31-.1-.64-.2-.94-2-5.81-1.71-11.65,0-17.44A58,58,0,0,1,181.87,999a26.47,26.47,0,0,1,5.17-5,17.9,17.9,0,0,1,4.21-2.24,9.44,9.44,0,0,1,9.09,1.34,15,15,0,0,1,3.92,4.16A27.56,27.56,0,0,1,208.88,1010.71Zm138.9,195.23c.37.44-.08,1.35-.68,1.48-.16,0-.3.11-.46.14l-.95.14c-9.37,1.07-18.74,2.1-28.1,3.21s-18.72,2.3-28.08,3.41c-6.83.81-13.66,1.53-20.49,2.32a17.9,17.9,0,0,0-2.76.67.51.51,0,0,0-.35.76,22.06,22.06,0,0,0,1.5,2.41c4.08,5.33,8.19,10.64,12.28,16a22.45,22.45,0,0,1,1.58,2.39c.09.16-.09.57-.26.78a2,2,0,0,1-.76.56q-5.75,2.41-11.5,4.78a1.73,1.73,0,0,1-2.15-.53c-.69-.88-1.38-1.76-2.05-2.66q-10.23-13.61-20.44-27.22c-.77-1-1.45-2.09-2.15-3.09.27-.36.4-.69.64-.83,2.5-1.41,5-2.82,7.56-4.14a7.62,7.62,0,0,1,2.29-.63q8.74-1.41,17.51-2.76,8.3-1.3,16.58-2.57c7.27-1.11,14.54-2.18,21.8-3.3s14.51-2.4,21.79-3.37c8-1.07,5.55-2,10.85,4C343.3,1200.52,345.52,1203.24,347.78,1205.94ZM252.52,877.79a113.38,113.38,0,0,0,19.15.18,63.91,63.91,0,0,0,19.06-4.36c.57-.23,1.17-.39,1.67-.55,3.36,3.13,3.84,3.49,8,4.1a52.65,52.65,0,0,0,25.93-2.75,21.26,21.26,0,0,0,5.46-3,14.12,14.12,0,0,0,4.14-4.59,4.56,4.56,0,0,0-1.46-6.3,14.53,14.53,0,0,0-4.82-2.06c-4.54-1.19-9.17-1.19-13.81-1.12a30.09,30.09,0,0,0-10.33,1.78,13,13,0,0,1-1.74.43c-4.14-3.64-5.56-4.39-11.07-5.4-2.35-.43-4.75-.61-7.13-.84a81.56,81.56,0,0,0-24.79,1.45,42.17,42.17,0,0,0-12.49,4.71,29.16,29.16,0,0,0-7.12,5.62,10.36,10.36,0,0,0-2.29,3.62A4.43,4.43,0,0,0,240,873.6a9.81,9.81,0,0,0,3.65,2.22A33.25,33.25,0,0,0,252.52,877.79Zm52.92-10.89a7.7,7.7,0,0,1,1.85-1.44,11.27,11.27,0,0,1,4.61-1.1h3.34v-.11a28.11,28.11,0,0,1,3.79.36,11.82,11.82,0,0,1,2.56,1.19c.27.14.3,1,.14,1.32a3.47,3.47,0,0,1-1.75,1.55,12.84,12.84,0,0,1-2.71.89,20.68,20.68,0,0,1-9.92-.14,8.71,8.71,0,0,1-1.67-.84A1.23,1.23,0,0,1,305.44,866.9Zm-42.1-1.47a11.32,11.32,0,0,1,2.13-1.85,16,16,0,0,1,6.32-2,57.94,57.94,0,0,1,12.35,0,12,12,0,0,1,4.51,1.39,1.93,1.93,0,0,1,.25,3.2,11.59,11.59,0,0,1-2.84,1.69,36.33,36.33,0,0,1-5.06,1.26,26.69,26.69,0,0,1-3.79.34c-1.11,0-2.22,0-3.33,0v.16l-6.64-.48a7.66,7.66,0,0,1-3.56-1.22A1.69,1.69,0,0,1,263.34,865.43Z"/>
  </g>
  <g id="d8_die" data-name="d8 die" class="die" transform="matrix(1.173951, 0, 0, 1.173951, -1696.344604, -141.957779)">
    <g id="d8_geometry" data-name="d8 geometry">
      <path class="die_color" d="M 1647.58 121.4 C 1631.29 118.76 1609.8 127.35 1599.81 140.49 L 1552.81 202.28 C 1542.81 215.42 1530.53 239.02 1525.48 254.73 L 1446.36 501.1 C 1441.36 516.81 1450.45 532.16 1466.67 535.21 L 1774.74 593.14 C 1790.96 596.19 1809.12 586.14 1815.11 570.73 L 1958.79 201.53 C 1964.79 186.16 1956.34 171.42 1940.06 168.78 L 1647.58 121.4 Z"/>
      <path class="die_edges" d="M1647.58,121.4c-16.29-2.64-37.78,5.95-47.77,19.09l-47,61.79c-10,13.14-22.28,36.74-27.33,52.45L1446.36,501.1c-5,15.71,4.09,31.06,20.31,34.11l308.07,57.93c16.22,3.05,34.38-7,40.37-22.41l143.68-369.2c6-15.37-2.45-30.11-18.73-32.75Zm-39.37,41.4c10-13.14,31.48-21.73,47.77-19.09l200,32.39c16.29,2.64,16.21,6.42-.17,8.4l-261,31.56c-16.38,2-21.61-7.15-11.63-20.28ZM1492.33,519.28c-16.21-3-25.35-18.4-20.3-34.1l65-202.32c5-15.71,17.09-17.63,26.76-4.26L1759,548.44c9.67,13.37,4.32,21.81-11.9,18.76Zm315.32,19.24c-6,15.37-18.8,17-28.47,3.65L1578.37,264.62c-9.67-13.37-4.19-25.92,12.2-27.9l321.26-38.85c16.38-2,24.89,9,18.91,24.36Z"/>
      <path class="die_edges_outline" d="M1647.58,121.4c-16.29-2.64-37.78,5.95-47.77,19.09l-47,61.79c-10,13.14-22.28,36.74-27.33,52.45L1446.36,501.1c-5,15.71,4.09,31.06,20.31,34.11l308.07,57.93c16.22,3.05,34.38-7,40.37-22.41l143.68-369.2c6-15.37-2.45-30.11-18.73-32.75Zm-39.37,41.4c10-13.14,31.48-21.73,47.77-19.09l200,32.39c16.29,2.64,16.21,6.42-.17,8.4l-261,31.56c-16.38,2-21.61-7.15-11.63-20.28ZM1492.33,519.28c-16.21-3-25.35-18.4-20.3-34.1l65-202.32c5-15.71,17.09-17.63,26.76-4.26L1759,548.44c9.67,13.37,4.32,21.81-11.9,18.76Zm315.32,19.24c-6,15.37-18.8,17-28.47,3.65L1578.37,264.62c-9.67-13.37-4.19-25.92,12.2-27.9l321.26-38.85c16.38-2,24.89,9,18.91,24.36Z"/>
    </g>
    <path class="die_numbers" id="d8_numbers" data-name="d8 numbers" d="M1575.1,405.58c24.94-14.12,47.84-6.66,58.2,10.16,12.65,20.54,9.07,37.82-15.33,52.17l-1.62.95-12.69-22.63,1.56-1c7.39-4.59,10.23-10.5,6.78-16.44-4.65-8-14.53-7.6-24.3-2.33s-14.8,13.06-10.93,20.36c2.91,5.5,7.71,7,15.4,5.56l11.29,20.75-67.06,24.94L1512.12,445,1531,434.3,1548.3,470l23.92-9-8.58.48a23.53,23.53,0,0,1-10.07-10.66C1545.69,435,1552.91,418.15,1575.1,405.58Zm76-207.27-21.41.6,31.65-42.13,11.07.67,15.43,17.05c6.84,7.54,10.91,10,18.69,10,5.93,0,10.53-1.94,12.82-5.22,2.42-3.46,0-5.28-7.7-6l-1.1-.1,8.63-12.19,1.06.14c15.52,1.9,19.86,8.46,12.39,19.29-7.22,10.48-19.66,16.65-34.47,17.08-9.85.29-15.77-2.17-25.54-11.72l-7.19-7Zm74.44,179.1a46.43,46.43,0,0,0,12,7.83,38.22,38.22,0,0,0,23.88,2.6,46,46,0,0,0,12.12-4.35,67,67,0,0,0,18.48-14.3,45.18,45.18,0,0,0,3.87-4.87c5.58-8.07,8.12-16.91,6.62-26.75a7.32,7.32,0,0,1-.15-3.69h-.09a.61.61,0,0,0,0-.11l-.22,0c.23-.22.3-.2.22,0l.09,0a.26.26,0,0,0,0,.08,7.89,7.89,0,0,1,1-.07,1.26,1.26,0,0,1,.33.05c1.21.39,2.37.93,3.58,1.35a24,24,0,0,0,20.76-1.94,35.39,35.39,0,0,0,14.09-14.65,26.82,26.82,0,0,0,2.78-17.18,36.56,36.56,0,0,0-4.63-12.5,55.48,55.48,0,0,0-13.92-15.67,39.6,39.6,0,0,0-8.2-4.91,33.38,33.38,0,0,0-23.39-1.65,39.22,39.22,0,0,0-16.45,9.47,28.24,28.24,0,0,0-3.44,4,17.82,17.82,0,0,0-3.5,11.23c0,1.12.12,2.23.18,3.35,0,.46-.53.95-.92.82-1.36-.45-2.72-.91-4.07-1.39a37,37,0,0,0-14.12-2.13A42.47,42.47,0,0,0,1736.2,296a70,70,0,0,0-21.68,15.55,41,41,0,0,0-6.64,9.34,33.09,33.09,0,0,0-3.69,12.79,39.69,39.69,0,0,0,3.48,19.14A71.34,71.34,0,0,0,1725.54,377.41Zm68.64-77.08a10,10,0,0,1,.85-2.23c3-4.85,7.19-8.09,13-8.77a10.77,10.77,0,0,1,11.62,10.27,8.25,8.25,0,0,1-1.66,5.2,17.15,17.15,0,0,1-11.32,7.33,11.24,11.24,0,0,1-12.49-8A6.54,6.54,0,0,1,1794.18,300.33Zm-53.63,32.23a16.39,16.39,0,0,1,2.92-4.91,31.19,31.19,0,0,1,13.59-9.49,18.39,18.39,0,0,1,10.37-.72c6.63,1.52,11.32,8.35,10.91,15-.08.38-.33,1.79-.72,3.16a16.94,16.94,0,0,1-1.13,2.63c-2.66,5.33-11,12.59-18.48,14.34a13.06,13.06,0,0,1-10.14-1.58,17.4,17.4,0,0,1-7.46-9.09A13.08,13.08,0,0,1,1740.55,332.56Z"/>
  </g>
  <g id="d6_die" data-name="d6 die" class="die" transform="matrix(1, 0, 0, 1, -740.464539, -80.418312)">
    <g id="d6_geometry" data-name="d6 geometry">
      <path class="die_color" d="M 1341.73 173.34 C 1341.16 156.84 1327.57 140.21 1311.52 136.34 L 1089.52 83.26 C 1073.52 79.42 1047.23 79.48 1031.2 83.39 L 768.2 147.53 C 752.2 151.44 739.71 168.12 740.5 184.6 L 757.12 528.09 C 757.92 544.57 771.47 562.09 787.23 566.92 L 991.26 630.1 C 1007.02 634.97 1032.88 635.21 1048.73 630.62 L 1325.63 550.4 C 1341.48 545.81 1353.98 528.56 1353.41 512.07 L 1341.73 173.34 Z"/>
      <path class="die_edges" d="M1341.73,173.34c-.57-16.5-14.16-33.13-30.21-37l-222-53.08c-16-3.84-42.29-3.78-58.32.13l-263,64.14c-16,3.91-28.49,20.59-27.7,37.07l16.62,343.49c.8,16.48,14.35,34,30.11,38.83L991.26,630.1c15.76,4.87,41.62,5.11,57.47.52l276.9-80.22c15.85-4.59,28.35-21.84,27.78-38.33ZM796.84,559.48c-15.76-4.88-29.31-22.35-30.11-38.83L750.85,192.4c-.8-16.48,11.67-33.16,27.7-37.07l252.66-61.61c16-3.91,42.28-4,58.33-.13l212.25,50.74c16,3.84,29.64,20.47,30.21,37l11.15,323.34c.57,16.49-11.93,33.74-27.78,38.33l-266.54,77.22c-15.85,4.59-41.72,4.36-57.48-.52ZM1332,181.29c-.57-16.49-14.16-33.12-30.21-37L1089.54,93.59c-16-3.84-42.3-3.78-58.33.13L778.55,155.33c-16,3.91-28.5,20.59-27.7,37.07l15.88,328.25c.8,16.48,14.35,34,30.11,38.83l194.51,60.18c15.76,4.88,41.63,5.11,57.48.52L1315.37,543c15.85-4.59,28.35-21.84,27.78-38.33ZM1031.24,104c16-3.91,42.27-4,58.32-.13l168.32,40.24c16,3.83,16,10-.07,13.66l-232,53.06c-16.09,3.68-42.3,3.24-58.25-1L819,170.52c-16-4.23-15.89-10.88.14-14.79ZM806.49,552c-15.76-4.88-29.31-22.35-30.11-38.83L761.5,205.57c-.8-16.48,11.6-26.51,27.55-22.29L957.8,228c16,4.22,29.8,21.15,30.77,37.62l18.84,319.17c1,16.47-11.13,26-26.89,21.08Zm202.12-286.36c-1-16.47,11.39-33,27.47-36.64l256.06-58.56c16.09-3.67,29.72,6.81,30.28,23.3l10.47,303.45c.57,16.49-11.94,33.74-27.78,38.33l-247,71.57c-15.85,4.59-29.61-5.13-30.58-21.6Z"/>
      <path class="die_edges_outline" d="M1341.73,173.34c-.57-16.5-14.16-33.13-30.21-37l-222-53.08c-16-3.84-42.29-3.78-58.32.13l-263,64.14c-16,3.91-28.49,20.59-27.7,37.07l16.62,343.49c.8,16.48,14.35,34,30.11,38.83L991.26,630.1c15.76,4.87,41.62,5.11,57.47.52l276.9-80.22c15.85-4.59,28.35-21.84,27.78-38.33ZM796.84,559.48c-15.76-4.88-29.31-22.35-30.11-38.83L750.85,192.4c-.8-16.48,11.67-33.16,27.7-37.07l252.66-61.61c16-3.91,42.28-4,58.33-.13l212.25,50.74c16,3.84,29.64,20.47,30.21,37l11.15,323.34c.57,16.49-11.93,33.74-27.78,38.33l-266.54,77.22c-15.85,4.59-41.72,4.36-57.48-.52ZM1332,181.29c-.57-16.49-14.16-33.12-30.21-37L1089.54,93.59c-16-3.84-42.3-3.78-58.33.13L778.55,155.33c-16,3.91-28.5,20.59-27.7,37.07l15.88,328.25c.8,16.48,14.35,34,30.11,38.83l194.51,60.18c15.76,4.88,41.63,5.11,57.48.52L1315.37,543c15.85-4.59,28.35-21.84,27.78-38.33ZM1031.24,104c16-3.91,42.27-4,58.32-.13l168.32,40.24c16,3.83,16,10-.07,13.66l-232,53.06c-16.09,3.68-42.3,3.24-58.25-1L819,170.52c-16-4.23-15.89-10.88.14-14.79ZM806.49,552c-15.76-4.88-29.31-22.35-30.11-38.83L761.5,205.57c-.8-16.48,11.6-26.51,27.55-22.29L957.8,228c16,4.22,29.8,21.15,30.77,37.62l18.84,319.17c1,16.47-11.13,26-26.89,21.08Zm202.12-286.36c-1-16.47,11.39-33,27.47-36.64l256.06-58.56c16.09-3.67,29.72,6.81,30.28,23.3l10.47,303.45c.57,16.49-11.94,33.74-27.78,38.33l-247,71.57c-15.85,4.59-29.61-5.13-30.58-21.6Z"/>
    </g>
    <path class="die_numbers" id="d6_numbers" data-name="d6 numbers" d="M1237,393.23c-.6,43.47-27.06,74.48-56.94,84.21-41.75,13.58-62.8-10.4-60.39-78.81C1122,332.15,1150,291.55,1188.09,286c30.51-4.42,45.76,12.21,48.31,42.06l.15,2.45-34.88,6.85-.34-2.49c-2.56-11.8-7.5-16-16.09-14.51-14,2.48-22.16,20.87-24.32,59.82l7.37-18.22c8.06-9.37,15.64-12.76,25.52-14.78C1224.87,340.87,1237.4,363.46,1237,393.23Zm-37,15.37c.36-17.63-6.34-27-18.58-24.08-10.39,2.47-19.53,14.91-20,33.23-.5,17.88,6.84,27.27,19.08,23.71C1193.27,437.73,1199.71,422.9,1200,408.6ZM911.46,341.09c28.73,8.11,48.33,36.58,49.4,73.85,1.08,37.48-16.79,54.11-46.74,48.63l-2.17-.4-1.11-38.55,2.17.19c10.38.8,19.53-3.84,19.17-16.48-.39-13.28-8.24-23.78-18.47-26.67-12.84-3.62-19.11,3.75-19.32,19l0,5.72-25.24-7.12-.61-5.91C867,378.9,859,369.62,848.73,366.73c-9.79-2.76-15.72,1.3-15.41,12,.32,11.36,9.82,18.71,19.64,22.33l2.18.83,1.11,38.55-2.18-.83c-25.32-9.69-48.49-34.5-49.59-72.84-1-36.19,17.19-47.62,38.52-41.6,17.63,5,29.64,17.07,35,37.7C881.51,343.05,892.09,335.63,911.46,341.09ZM1129.1,146.66l40.4,6.94-120.79,28.68-19.54-5.09-.38-22.06c-.2-9.1-3.35-12.62-16.5-15.22a74.25,74.25,0,0,0-29.58.19c-9.6,2.15-8.6,4.52,3.23,7.76l1.69.47-35,7.9-1.57-.5c-22.47-7.13-18.26-14.27,11.76-20.93,28.21-6.25,57.79-7.33,83-3,17.08,2.91,23.72,6.9,27,18.5l2.63,8.89Z"/>
  </g>
  <g id="d4_die" data-name="d4 die" class="die" transform="matrix(1, 0, 0, 1, -76.91761, -87.491203)">
    <g id="d4_geometry" data-name="d4 geometry">
      <path class="die_color" d="M 395.52 97 C 384.92 84.35 367.52 84.32 356.89 96.92 L 83.34 420.88 C 72.7 433.49 75.58 450.72 89.76 459.17 L 388.28 637.17 C 402.45 645.62 424.28 643.73 436.79 632.96 L 651 448.58 C 663.527 437.681 665.059 418.774 654.45 406 L 395.52 97 Z"/>
      <path class="die_edges" d="M395.52,97c-10.6-12.65-28-12.68-38.63-.08L83.34,420.88c-10.64,12.61-7.76,29.84,6.42,38.29l298.52,178c14.17,8.45,36,6.56,48.51-4.21L651,448.58A30.56,30.56,0,0,0,654.45,406Zm-276,355.76c-14.17-8.45-17.06-25.68-6.41-38.29L348.18,136.12c10.65-12.61,20.24-9.45,21.31,7l29.23,447.35c1.08,16.47-9.64,23-23.81,14.58ZM389.83,147.59c-1.08-16.47,6.71-19.59,17.31-6.94l218.79,261.1a30.56,30.56,0,0,1-3.47,42.56L443.31,598.52c-12.51,10.77-23.62,6.1-24.7-10.36Z"/>
      <path class="die_edges_outline" d="M395.52,97c-10.6-12.65-28-12.68-38.63-.08L83.34,420.88c-10.64,12.61-7.76,29.84,6.42,38.29l298.52,178c14.17,8.45,36,6.56,48.51-4.21L651,448.58A30.56,30.56,0,0,0,654.45,406Zm-276,355.76c-14.17-8.45-17.06-25.68-6.41-38.29L348.18,136.12c10.65-12.61,20.24-9.45,21.31,7l29.23,447.35c1.08,16.47-9.64,23-23.81,14.58ZM389.83,147.59c-1.08-16.47,6.71-19.59,17.31-6.94l218.79,261.1a30.56,30.56,0,0,1-3.47,42.56L443.31,598.52c-12.51,10.77-23.62,6.1-24.7-10.36Z" style=""/>
    </g>
    <path class="die_numbers" id="d4_numbers" data-name="d4 numbers" d="M471.11,286.67,477,283l-10.4-19-5.85,3.28-26.53-49.5-14.1,5.89,4.63,71.7L432,311l25.95-16.14L470,318.49l13.2-9.2Zm-34.21-6-2.19-24.37c-.18-2.41-.68-5.63-1.3-9.39l14.19,27.76ZM454.7,448l7.78-16.18,46,27.38-3.41,8-27.53,12.63c-14.62,6.72-20.67,10.92-24.34,18.87-2.92,6.34-1.58,11,3.36,12.8,5.09,1.86,9.33-1.13,13.73-9.3l.61-1.12,15.84,6.5-.56,1.08c-8.68,16.73-21.77,23.82-38.51,18.56-17.48-5.5-23.08-19-15.05-35.64,4.93-10.21,12.63-16.11,33.22-24.88L479,461.07Zm71.14-26.5c-15.25-8.53-18.33-25.07-9.27-44.41,9.23-19.7,24.62-24.16,40.69-14.65l1.13.67-9.24,19.24-1.19-.51c-5.81-2.46-12.41-2-15.44,4.41-3.18,6.69-1.18,13.32,4.1,16.54,6.46,3.94,11.82,1.48,15.74-5.77l1.46-2.73,11.93,7.75-1.13,2.85c-2.74,7-.76,12.46,3.86,15.3,4.34,2.66,8.29,1.69,10.69-3.14,2.55-5.15-.44-9.95-4.56-13.18l-.92-.74,8.87-18,.91.78c10.23,8.87,15.39,23.63,6.91,40.54-7.92,15.78-19.47,18.54-28.86,13.25-8-4.54-11.59-11.73-9.47-22.09C545.27,426.29,535.62,427,525.84,421.51ZM343,217.65l-22.42-8.08-54.28,53.68-4.47,14.39L295.48,292l-7.35,22.39L307.28,323,315,300.35l9.27,4,7.25-21.1-9.41-3.86ZM302.3,271.26l-14.87-6.1,18-17.44c2-1.83,4.32-4.53,7.13-7.79Zm-20.85,213-9-15.77,49.4-46.69,5.37,9.11L320.19,474c-3.27,20-3.36,28.52,1.09,36.24,3.51,6.11,8.27,7.17,13,3.16,5.1-4.29,5.39-10.39,1.1-19.53l-.59-1.26,18-15.5.6,1.28c9.27,19.64,5.47,38.07-11.48,51.94-15.63,12.8-29.28,10.78-37.79-4.21-5.31-9.35-6-19.43-2.18-45.07l2.64-18ZM210,385.33l2.16,24.53-48.1,10,12.72,25.26L162,447.8,151,427.64a45.19,45.19,0,0,1-5.21-17.27l-1-10Z"/>
  </g>
</svg>