<?xml version="1.0" encoding="utf-8"?>
<svg viewBox="0 0 150 150" width="150px" height="150px" xmlns="http://www.w3.org/2000/svg">
  <path fill="currentColor" d="M 78.592 17.803 C 80.505 19.825 142.079 131.714 141.563 132.229 C 141.293 132.499 126.991 123.519 109.779 112.273 C 92.568 101.028 77.915 91.491 77.217 91.08 C 76.433 90.618 63.118 97.854 42.4 110.001 C 23.948 120.82 8.664 129.485 8.436 129.257 C 8.209 129.029 23.651 103.595 42.754 72.737 C 68.604 30.98 77.769 16.931 78.592 17.803 Z M 61.97 65.217 C 53.535 78.833 45.948 91.043 45.11 92.352 L 43.587 94.731 L 46.537 93.198 C 48.159 92.355 55.254 88.247 62.305 84.069 C 69.355 79.891 75.671 76.473 76.341 76.473 C 77.011 76.473 84.405 80.954 92.772 86.431 C 101.14 91.907 107.986 96.194 107.986 95.957 C 107.986 95.607 78.18 41.59 77.505 40.717 C 77.396 40.576 70.406 51.601 61.97 65.217 Z" />
</svg>