<?xml version="1.0" encoding="utf-8"?>
<svg viewBox="0 0 150 150" width="150px" height="150px" xmlns="http://www.w3.org/2000/svg">
  <path d="M 75.001 0 C 75.284 0 79.808 4.328 85.055 9.618 C 91.743 16.361 96.138 19.947 99.755 21.613 C 102.592 22.921 106.969 25.471 109.479 27.28 L 114.044 30.569 L 120.773 25.83 C 124.473 23.224 127.96 21.091 128.521 21.091 C 129.083 21.091 127.378 24.307 124.733 28.238 C 122.089 32.169 119.925 35.625 119.925 35.918 C 119.925 36.211 121.602 38.927 123.651 41.953 C 125.7 44.979 128.083 49.18 128.947 51.289 C 129.899 53.616 134.346 58.988 140.258 64.951 L 150 74.777 L 140.309 84.604 C 133.326 91.683 129.753 96.172 127.527 100.661 C 125.827 104.089 123.422 108.227 122.181 109.859 C 120.941 111.491 119.925 113.128 119.925 113.498 C 119.925 113.867 122.089 117.386 124.733 121.316 C 127.378 125.247 129.133 128.463 128.633 128.463 C 128.134 128.463 124.643 126.334 120.876 123.73 L 114.026 118.998 L 109.508 122.254 C 107.024 124.044 102.683 126.581 99.862 127.892 C 96.319 129.538 91.684 133.324 84.867 140.137 L 75 150 L 64.726 139.8 C 57.494 132.62 52.723 128.738 48.619 126.693 C 45.411 125.094 41.455 122.662 39.827 121.288 L 36.867 118.789 L 29.669 123.808 C 25.711 126.568 22.267 128.62 22.015 128.367 C 21.764 128.115 23.72 124.625 26.362 120.613 L 31.166 113.316 L 27.868 108.666 C 26.054 106.11 23.617 102.076 22.452 99.703 C 21.278 97.314 15.796 90.79 10.166 85.083 L 0 74.777 L 10.166 64.471 C 15.796 58.764 21.278 52.24 22.452 49.851 C 23.617 47.479 26.054 43.445 27.868 40.888 L 31.166 36.238 L 26.362 28.942 C 23.72 24.93 21.76 21.444 22.006 21.196 C 22.253 20.949 25.72 22.981 29.71 25.713 L 36.967 30.68 L 39.881 28.22 C 41.485 26.867 45.634 24.311 49.102 22.541 C 53.679 20.203 58.02 16.675 64.946 9.661 C 70.194 4.348 74.718 0 75.001 0 Z M 62.815 27.306 C 57.333 28.852 50.898 31.897 47.509 34.552 L 45.347 36.245 L 51.332 40.497 C 60.441 46.967 74.859 56.562 75.473 56.562 C 75.773 56.562 82.699 51.984 90.865 46.387 L 105.711 36.211 L 102.185 33.809 C 94.833 28.798 87.607 26.588 77.391 26.229 C 70.933 26.001 66.204 26.351 62.815 27.306 Z M 33.251 50.081 C 28.422 58.262 26.777 64.538 26.777 74.777 C 26.777 81.041 27.323 85.531 28.525 89.157 C 30.485 95.065 35.835 104.651 36.959 104.267 C 37.363 104.129 42.177 97.418 47.66 89.353 L 57.628 74.688 L 47.66 60.113 C 42.178 52.097 37.363 45.425 36.96 45.287 C 36.557 45.15 34.888 47.307 33.251 50.081 Z M 69.266 96.66 C 66.375 98.677 59.76 103.266 54.567 106.858 L 45.125 113.389 L 50.181 116.586 C 58.529 121.866 63.629 123.193 75.479 123.17 C 83.747 123.154 87.121 122.725 91.273 121.162 C 97.108 118.966 104.632 114.511 104.632 113.253 C 104.632 112.393 76.506 92.992 75.261 92.992 C 74.855 92.992 72.157 94.643 69.266 96.66 Z M 93.064 74.784 L 103.462 90.058 L 113.86 105.334 L 116.863 100.361 C 126.652 84.155 126.624 64.607 116.791 49.148 L 113.712 44.307 L 93.064 74.784 Z" />
</svg>