<?xml version="1.0" encoding="utf-8"?>
<svg viewBox="0 0 150 150" width="150px" height="150px" xmlns="http://www.w3.org/2000/svg">
  <path d="M 17.813 18.618 C 18.18 19.566 26.567 32.096 36.451 46.461 C 46.335 60.827 54.693 73.28 55.023 74.133 C 55.362 75.012 47.348 87.712 36.575 103.369 C 26.098 118.595 17.527 131.472 17.527 131.987 C 17.527 133.194 16.864 133.611 41.016 117.234 C 52.397 109.516 64.781 101.142 68.536 98.625 L 75.363 94.047 L 103.769 113.371 C 119.393 123.999 132.321 132.286 132.497 131.783 C 132.674 131.282 124.403 118.681 114.117 103.782 C 103.831 88.881 95.406 75.94 95.396 75.024 C 95.386 74.107 103.802 61.166 114.099 46.266 C 124.395 31.365 132.674 18.764 132.497 18.262 C 132.319 17.761 119.378 26.037 103.738 36.654 L 75.301 55.959 L 68.505 51.405 C 64.766 48.901 52.397 40.528 41.016 32.801 C 16.082 15.869 16.959 16.405 17.813 18.618" />
</svg>