<?xml version="1.0" encoding="utf-8"?>
<svg xmlns="http://www.w3.org/2000/svg" style="display:none">
  <symbol id="advantage" viewBox="0 0 150 150" fill="currentColor">
    <path d="M 78.592 17.803 C 80.505 19.825 142.079 131.714 141.563 132.229 C 141.293 132.499 126.991 123.519 109.779 112.273 C 92.568 101.028 77.915 91.491 77.217 91.08 C 76.433 90.618 63.118 97.854 42.4 110.001 C 23.948 120.82 8.664 129.485 8.436 129.257 C 8.209 129.029 23.651 103.595 42.754 72.737 C 68.604 30.98 77.769 16.931 78.592 17.803 Z M 61.97 65.217 C 53.535 78.833 45.948 91.043 45.11 92.352 L 43.587 94.731 L 46.537 93.198 C 48.159 92.355 55.254 88.247 62.305 84.069 C 69.355 79.891 75.671 76.473 76.341 76.473 C 77.011 76.473 84.405 80.954 92.772 86.431 C 101.14 91.907 107.986 96.194 107.986 95.957 C 107.986 95.607 78.18 41.59 77.505 40.717 C 77.396 40.576 70.406 51.601 61.97 65.217 Z"></path>
  </symbol>
  <symbol id="triumph" viewBox="0 0 150 150" fill="currentColor">
    <path d="M 74.607 0.851 C 103.346 0.54 129.072 16.434 141.593 42.234 C 150.616 60.827 151.771 80.142 145.042 99.925 C 137.283 122.739 117.567 140.91 93.607 147.33 C 84.715 149.713 65.446 149.772 56.607 147.444 C 53.032 146.502 45.833 143.633 40.61 141.067 C 32.673 137.168 29.714 134.99 22.61 127.818 C 12.999 118.116 7.695 109.908 3.867 98.234 C 0.003 86.452 -0.668 66.336 3.443 53.234 C 12.047 25.814 33.491 7.156 60.682 1.821 C 63.116 1.344 69.382 0.907 74.607 0.851 Z M 14.607 81.524 C 14.607 87.936 20.37 102.792 25.78 110.325 C 29.707 115.793 30.071 115.5 34.415 103.362 C 39.599 88.88 40.136 90.534 28.375 84.765 C 17.325 79.344 14.607 78.704 14.607 81.524 Z M 26.179 39.228 C 20.437 46.757 12.623 68.083 14.806 70.267 C 15.64 71.1 29.3 65.625 34.273 62.464 L 38.438 59.815 L 36.936 54.061 C 35.465 48.43 30.168 35.734 29.288 35.734 C 29.044 35.734 27.645 37.306 26.179 39.228 Z M 60.824 16.183 C 54.75 17.654 42.491 23.542 38.144 27.076 L 35.182 29.485 L 40.144 31.996 C 46.025 34.97 58.457 38.945 59.626 38.223 C 61.448 37.096 70.607 17.989 70.607 15.313 C 70.607 14.421 66.649 14.773 60.824 16.183 Z M 81.09 21.285 C 82.446 24.888 85.013 30.272 86.794 33.25 C 89.655 38.032 90.33 38.595 92.57 38.065 C 96.947 37.029 103.899 34.578 109.557 32.077 L 115.007 29.667 L 110.057 26.085 C 102.135 20.352 87.616 14.734 80.721 14.734 C 78.629 14.734 78.63 14.75 81.09 21.285 Z M 118.167 39.484 C 115.695 44.605 111.607 56.684 111.607 58.866 C 111.607 60.12 114.344 61.985 120.857 65.169 C 125.944 67.656 131.283 69.958 132.719 70.286 L 135.332 70.882 L 134.514 65.707 C 133.533 59.504 132.014 54.623 129.386 49.234 C 127.063 44.472 121.342 35.739 120.542 35.736 C 120.232 35.735 119.163 37.422 118.167 39.484 Z M 127.902 81.685 C 118.509 85.34 111.607 89.434 111.607 91.35 C 111.607 93.505 116.29 107.21 118.496 111.508 L 120.335 115.093 L 123.601 110.663 C 128.295 104.299 132.205 95.276 133.974 86.728 C 134.819 82.645 135.417 79.21 135.302 79.096 C 135.187 78.981 131.857 80.146 127.902 81.685 Z M 88.419 113.904 C 85.738 118.006 82.413 124.984 80.525 130.474 L 78.689 135.809 L 82.398 135.201 C 93.161 133.435 107.366 127.293 112.607 122.137 C 113.94 120.826 113.94 120.556 112.607 119.709 C 109.641 117.824 97.033 112.889 93.524 112.238 C 90.476 111.673 89.715 111.921 88.419 113.904 Z M 66.107 55.393 C 55.148 61.16 50.608 73.534 55.5 84.305 C 58.614 91.161 67.255 96.746 74.723 96.728 C 83.37 96.708 93.358 89.085 95.588 80.803 C 98.099 71.478 93.288 60.537 84.7 56.041 C 79.436 53.286 70.69 52.981 66.107 55.393 Z M 50.107 114.132 C 42.45 116.656 35.607 119.76 35.607 120.707 C 35.607 121.039 38.456 123.183 41.938 125.472 C 51.006 131.434 70.624 137.634 70.595 134.529 C 70.576 132.495 64.17 118.333 61.7 114.864 C 60.474 113.143 58.939 111.754 58.289 111.779 C 57.639 111.803 53.957 112.862 50.107 114.132 Z" ></path>
  </symbol>
  <symbol id="threat" viewBox="0 0 150 150" fill="currentColor">
    <path d="M 75.483 12.038 C 76.033 12.038 76.483 12.933 76.483 14.027 C 76.483 19.672 86.046 36.849 89.723 37.811 C 90.743 38.078 94.742 39.812 98.609 41.666 C 118.45 51.174 130.322 75.671 125.412 96.972 C 124.482 101.008 124.668 101.972 127.486 107.696 C 129.189 111.156 132.923 116.558 135.783 119.701 C 138.943 123.175 140.199 125.122 138.985 124.664 C 134.098 122.821 126.73 121.857 120.096 122.192 C 113.557 122.523 112.506 122.885 108.445 126.213 C 89.217 141.968 60.201 141.865 42.15 125.976 L 37.455 121.843 L 28.219 121.873 C 19.774 121.9 16.713 122.385 10.983 124.604 C 9.814 125.058 11.123 123.091 14.137 119.87 C 16.972 116.839 20.663 111.644 22.338 108.325 C 25.309 102.44 25.371 102.029 24.804 91.913 C 23.784 73.683 28.36 61.06 39.905 50.26 C 46.081 44.483 56.971 38.038 60.558 38.038 C 64.148 38.038 74.393 20.534 74.459 14.288 C 74.472 13.05 74.933 12.038 75.483 12.038 Z M 55.963 52.93 C 45.964 58.678 38.622 69.245 36.501 80.939 C 35.152 88.38 35.869 92.708 38.596 93.574 C 39.681 93.918 44.487 94.189 49.276 94.176 C 57.274 94.155 60.498 93.629 65.983 91.453 C 67.145 90.992 65.715 93.148 62.57 96.599 C 59.554 99.908 55.602 105.808 53.645 109.923 C 49.592 118.444 49.43 118.084 59.483 122.902 C 64.355 125.237 66.19 125.538 75.554 125.538 C 85.337 125.538 86.559 125.314 91.955 122.538 C 95.162 120.888 98.218 118.845 98.747 117.998 C 100.154 115.743 94.058 103.833 88.233 97.457 C 85.62 94.597 83.483 92.006 83.483 91.699 C 83.483 91.391 85.171 91.857 87.233 92.734 C 91.263 94.447 106.804 95.091 111.733 93.749 C 114.362 93.033 114.483 92.723 114.483 86.713 C 114.483 73.701 107.959 61.905 96.505 54.208 L 90.062 49.878 L 87.267 53.208 C 83.562 57.623 76.483 71.662 76.483 74.595 C 76.483 75.874 76.033 77.198 75.483 77.538 C 74.903 77.897 74.483 76.92 74.483 75.213 C 74.483 71.775 67.728 57.992 63.738 53.291 L 60.983 50.045 L 55.963 52.93 Z"></path>
  </symbol>
  <symbol id="success" viewBox="0 0 150 150" fill="currentColor">
    <path d="M 75.577 5.58 C 75.961 5.58 76.829 8.588 77.506 12.265 C 78.988 20.307 83.645 32.704 87.077 37.741 L 89.572 41.403 L 95.31 39.904 C 102.976 37.902 112.757 33.388 118.74 29.09 C 121.426 27.159 123.849 25.58 124.122 25.58 C 125.366 25.58 124.353 27.951 121.237 32.328 C 116.634 38.795 113.259 45.746 110.712 54.007 C 108.229 62.057 107.455 60.984 120.12 67.048 C 127.981 70.812 131.403 71.906 142.37 74.156 C 145.56 74.811 145.166 76.58 141.83 76.58 C 136.656 76.58 127.174 79.565 117.901 84.114 C 108.71 88.622 108.683 88.647 109.282 91.858 C 110.476 98.257 115.718 110.354 120.18 117.006 C 122.685 120.742 124.508 124.025 124.231 124.302 C 123.955 124.579 120.505 122.662 116.565 120.043 C 109.659 115.452 98.529 110.514 91.961 109.128 C 88.919 108.486 88.67 108.694 85.203 114.771 C 81.671 120.961 77.337 133.416 76.137 140.83 C 75.294 146.036 74.009 145.514 73.319 139.683 C 72.533 133.046 68.313 120.778 64.482 113.989 C 61.387 108.505 61.273 108.422 57.727 109.076 C 51.749 110.177 39.6 115.428 33.31 119.628 C 24.62 125.431 23.829 125.101 29.003 117.832 C 33.615 111.353 36.982 104.411 39.546 96.096 C 41.608 89.41 41.623 89.053 39.91 87.734 C 35.431 84.289 21.243 78.354 13.807 76.817 C 6.297 75.264 2.995 73.58 7.46 73.58 C 12.015 73.58 25.856 69.238 33.45 65.427 L 41.78 61.247 L 41.112 57.663 C 39.906 51.197 34.669 39.201 30.162 32.58 C 27.729 29.005 26.141 25.937 26.633 25.762 C 27.126 25.587 30.283 27.314 33.65 29.6 C 40.837 34.481 48.228 37.893 56.021 39.928 L 61.627 41.392 L 65.126 35.136 C 69.176 27.893 72.038 20.028 73.705 11.556 C 74.351 8.269 75.194 5.58 75.577 5.58 Z M 65.527 55.906 C 49.822 64.196 49.922 86.07 65.701 93.933 C 72.62 97.381 77.737 97.353 84.684 93.83 C 97.493 87.335 100.651 71.519 91.273 60.837 C 84.878 53.554 73.95 51.461 65.527 55.906 Z"></path>
  </symbol>
  <symbol id="failure" viewBox="0 0 150 150" fill="currentColor">
    <path d="M 17.813 18.618 C 18.18 19.566 26.567 32.096 36.451 46.461 C 46.335 60.827 54.693 73.28 55.023 74.133 C 55.362 75.012 47.348 87.712 36.575 103.369 C 26.098 118.595 17.527 131.472 17.527 131.987 C 17.527 133.194 16.864 133.611 41.016 117.234 C 52.397 109.516 64.781 101.142 68.536 98.625 L 75.363 94.047 L 103.769 113.371 C 119.393 123.999 132.321 132.286 132.497 131.783 C 132.674 131.282 124.403 118.681 114.117 103.782 C 103.831 88.881 95.406 75.94 95.396 75.024 C 95.386 74.107 103.802 61.166 114.099 46.266 C 124.395 31.365 132.674 18.764 132.497 18.262 C 132.319 17.761 119.378 26.037 103.738 36.654 L 75.301 55.959 L 68.505 51.405 C 64.766 48.901 52.397 40.528 41.016 32.801 C 16.082 15.869 16.959 16.405 17.813 18.618"></path>
  </symbol>
  <symbol id="despair" viewBox="0 0 150 150" fill="currentColor">
    <path d="M 75.001 0 C 75.284 0 79.808 4.328 85.055 9.618 C 91.743 16.361 96.138 19.947 99.755 21.613 C 102.592 22.921 106.969 25.471 109.479 27.28 L 114.044 30.569 L 120.773 25.83 C 124.473 23.224 127.96 21.091 128.521 21.091 C 129.083 21.091 127.378 24.307 124.733 28.238 C 122.089 32.169 119.925 35.625 119.925 35.918 C 119.925 36.211 121.602 38.927 123.651 41.953 C 125.7 44.979 128.083 49.18 128.947 51.289 C 129.899 53.616 134.346 58.988 140.258 64.951 L 150 74.777 L 140.309 84.604 C 133.326 91.683 129.753 96.172 127.527 100.661 C 125.827 104.089 123.422 108.227 122.181 109.859 C 120.941 111.491 119.925 113.128 119.925 113.498 C 119.925 113.867 122.089 117.386 124.733 121.316 C 127.378 125.247 129.133 128.463 128.633 128.463 C 128.134 128.463 124.643 126.334 120.876 123.73 L 114.026 118.998 L 109.508 122.254 C 107.024 124.044 102.683 126.581 99.862 127.892 C 96.319 129.538 91.684 133.324 84.867 140.137 L 75 150 L 64.726 139.8 C 57.494 132.62 52.723 128.738 48.619 126.693 C 45.411 125.094 41.455 122.662 39.827 121.288 L 36.867 118.789 L 29.669 123.808 C 25.711 126.568 22.267 128.62 22.015 128.367 C 21.764 128.115 23.72 124.625 26.362 120.613 L 31.166 113.316 L 27.868 108.666 C 26.054 106.11 23.617 102.076 22.452 99.703 C 21.278 97.314 15.796 90.79 10.166 85.083 L 0 74.777 L 10.166 64.471 C 15.796 58.764 21.278 52.24 22.452 49.851 C 23.617 47.479 26.054 43.445 27.868 40.888 L 31.166 36.238 L 26.362 28.942 C 23.72 24.93 21.76 21.444 22.006 21.196 C 22.253 20.949 25.72 22.981 29.71 25.713 L 36.967 30.68 L 39.881 28.22 C 41.485 26.867 45.634 24.311 49.102 22.541 C 53.679 20.203 58.02 16.675 64.946 9.661 C 70.194 4.348 74.718 0 75.001 0 Z M 62.815 27.306 C 57.333 28.852 50.898 31.897 47.509 34.552 L 45.347 36.245 L 51.332 40.497 C 60.441 46.967 74.859 56.562 75.473 56.562 C 75.773 56.562 82.699 51.984 90.865 46.387 L 105.711 36.211 L 102.185 33.809 C 94.833 28.798 87.607 26.588 77.391 26.229 C 70.933 26.001 66.204 26.351 62.815 27.306 Z M 33.251 50.081 C 28.422 58.262 26.777 64.538 26.777 74.777 C 26.777 81.041 27.323 85.531 28.525 89.157 C 30.485 95.065 35.835 104.651 36.959 104.267 C 37.363 104.129 42.177 97.418 47.66 89.353 L 57.628 74.688 L 47.66 60.113 C 42.178 52.097 37.363 45.425 36.96 45.287 C 36.557 45.15 34.888 47.307 33.251 50.081 Z M 69.266 96.66 C 66.375 98.677 59.76 103.266 54.567 106.858 L 45.125 113.389 L 50.181 116.586 C 58.529 121.866 63.629 123.193 75.479 123.17 C 83.747 123.154 87.121 122.725 91.273 121.162 C 97.108 118.966 104.632 114.511 104.632 113.253 C 104.632 112.393 76.506 92.992 75.261 92.992 C 74.855 92.992 72.157 94.643 69.266 96.66 Z M 93.064 74.784 L 103.462 90.058 L 113.86 105.334 L 116.863 100.361 C 126.652 84.155 126.624 64.607 116.791 49.148 L 113.712 44.307 L 93.064 74.784 Z"></path>
  </symbol>
</svg>