<?xml version="1.0" encoding="utf-8"?>
<svg viewBox="0 0 150 150" width="150px" height="150px" xmlns="http://www.w3.org/2000/svg">
  <path d="M 75.577 5.58 C 75.961 5.58 76.829 8.588 77.506 12.265 C 78.988 20.307 83.645 32.704 87.077 37.741 L 89.572 41.403 L 95.31 39.904 C 102.976 37.902 112.757 33.388 118.74 29.09 C 121.426 27.159 123.849 25.58 124.122 25.58 C 125.366 25.58 124.353 27.951 121.237 32.328 C 116.634 38.795 113.259 45.746 110.712 54.007 C 108.229 62.057 107.455 60.984 120.12 67.048 C 127.981 70.812 131.403 71.906 142.37 74.156 C 145.56 74.811 145.166 76.58 141.83 76.58 C 136.656 76.58 127.174 79.565 117.901 84.114 C 108.71 88.622 108.683 88.647 109.282 91.858 C 110.476 98.257 115.718 110.354 120.18 117.006 C 122.685 120.742 124.508 124.025 124.231 124.302 C 123.955 124.579 120.505 122.662 116.565 120.043 C 109.659 115.452 98.529 110.514 91.961 109.128 C 88.919 108.486 88.67 108.694 85.203 114.771 C 81.671 120.961 77.337 133.416 76.137 140.83 C 75.294 146.036 74.009 145.514 73.319 139.683 C 72.533 133.046 68.313 120.778 64.482 113.989 C 61.387 108.505 61.273 108.422 57.727 109.076 C 51.749 110.177 39.6 115.428 33.31 119.628 C 24.62 125.431 23.829 125.101 29.003 117.832 C 33.615 111.353 36.982 104.411 39.546 96.096 C 41.608 89.41 41.623 89.053 39.91 87.734 C 35.431 84.289 21.243 78.354 13.807 76.817 C 6.297 75.264 2.995 73.58 7.46 73.58 C 12.015 73.58 25.856 69.238 33.45 65.427 L 41.78 61.247 L 41.112 57.663 C 39.906 51.197 34.669 39.201 30.162 32.58 C 27.729 29.005 26.141 25.937 26.633 25.762 C 27.126 25.587 30.283 27.314 33.65 29.6 C 40.837 34.481 48.228 37.893 56.021 39.928 L 61.627 41.392 L 65.126 35.136 C 69.176 27.893 72.038 20.028 73.705 11.556 C 74.351 8.269 75.194 5.58 75.577 5.58 Z M 65.527 55.906 C 49.822 64.196 49.922 86.07 65.701 93.933 C 72.62 97.381 77.737 97.353 84.684 93.83 C 97.493 87.335 100.651 71.519 91.273 60.837 C 84.878 53.554 73.95 51.461 65.527 55.906 Z" />
</svg>