<?xml version="1.0" encoding="utf-8"?>
<svg viewBox="0 0 150 150" width="150px" height="150px" xmlns="http://www.w3.org/2000/svg">
  <path d="M 75.483 12.038 C 76.033 12.038 76.483 12.933 76.483 14.027 C 76.483 19.672 86.046 36.849 89.723 37.811 C 90.743 38.078 94.742 39.812 98.609 41.666 C 118.45 51.174 130.322 75.671 125.412 96.972 C 124.482 101.008 124.668 101.972 127.486 107.696 C 129.189 111.156 132.923 116.558 135.783 119.701 C 138.943 123.175 140.199 125.122 138.985 124.664 C 134.098 122.821 126.73 121.857 120.096 122.192 C 113.557 122.523 112.506 122.885 108.445 126.213 C 89.217 141.968 60.201 141.865 42.15 125.976 L 37.455 121.843 L 28.219 121.873 C 19.774 121.9 16.713 122.385 10.983 124.604 C 9.814 125.058 11.123 123.091 14.137 119.87 C 16.972 116.839 20.663 111.644 22.338 108.325 C 25.309 102.44 25.371 102.029 24.804 91.913 C 23.784 73.683 28.36 61.06 39.905 50.26 C 46.081 44.483 56.971 38.038 60.558 38.038 C 64.148 38.038 74.393 20.534 74.459 14.288 C 74.472 13.05 74.933 12.038 75.483 12.038 Z M 55.963 52.93 C 45.964 58.678 38.622 69.245 36.501 80.939 C 35.152 88.38 35.869 92.708 38.596 93.574 C 39.681 93.918 44.487 94.189 49.276 94.176 C 57.274 94.155 60.498 93.629 65.983 91.453 C 67.145 90.992 65.715 93.148 62.57 96.599 C 59.554 99.908 55.602 105.808 53.645 109.923 C 49.592 118.444 49.43 118.084 59.483 122.902 C 64.355 125.237 66.19 125.538 75.554 125.538 C 85.337 125.538 86.559 125.314 91.955 122.538 C 95.162 120.888 98.218 118.845 98.747 117.998 C 100.154 115.743 94.058 103.833 88.233 97.457 C 85.62 94.597 83.483 92.006 83.483 91.699 C 83.483 91.391 85.171 91.857 87.233 92.734 C 91.263 94.447 106.804 95.091 111.733 93.749 C 114.362 93.033 114.483 92.723 114.483 86.713 C 114.483 73.701 107.959 61.905 96.505 54.208 L 90.062 49.878 L 87.267 53.208 C 83.562 57.623 76.483 71.662 76.483 74.595 C 76.483 75.874 76.033 77.198 75.483 77.538 C 74.903 77.897 74.483 76.92 74.483 75.213 C 74.483 71.775 67.728 57.992 63.738 53.291 L 60.983 50.045 L 55.963 52.93 Z" />
</svg>