<?xml version="1.0" encoding="utf-8"?>
<svg viewBox="0 0 150 150" width="150px" height="150px" xmlns="http://www.w3.org/2000/svg">
  <path d="M 74.607 0.851 C 103.346 0.54 129.072 16.434 141.593 42.234 C 150.616 60.827 151.771 80.142 145.042 99.925 C 137.283 122.739 117.567 140.91 93.607 147.33 C 84.715 149.713 65.446 149.772 56.607 147.444 C 53.032 146.502 45.833 143.633 40.61 141.067 C 32.673 137.168 29.714 134.99 22.61 127.818 C 12.999 118.116 7.695 109.908 3.867 98.234 C 0.003 86.452 -0.668 66.336 3.443 53.234 C 12.047 25.814 33.491 7.156 60.682 1.821 C 63.116 1.344 69.382 0.907 74.607 0.851 Z M 14.607 81.524 C 14.607 87.936 20.37 102.792 25.78 110.325 C 29.707 115.793 30.071 115.5 34.415 103.362 C 39.599 88.88 40.136 90.534 28.375 84.765 C 17.325 79.344 14.607 78.704 14.607 81.524 Z M 26.179 39.228 C 20.437 46.757 12.623 68.083 14.806 70.267 C 15.64 71.1 29.3 65.625 34.273 62.464 L 38.438 59.815 L 36.936 54.061 C 35.465 48.43 30.168 35.734 29.288 35.734 C 29.044 35.734 27.645 37.306 26.179 39.228 Z M 60.824 16.183 C 54.75 17.654 42.491 23.542 38.144 27.076 L 35.182 29.485 L 40.144 31.996 C 46.025 34.97 58.457 38.945 59.626 38.223 C 61.448 37.096 70.607 17.989 70.607 15.313 C 70.607 14.421 66.649 14.773 60.824 16.183 Z M 81.09 21.285 C 82.446 24.888 85.013 30.272 86.794 33.25 C 89.655 38.032 90.33 38.595 92.57 38.065 C 96.947 37.029 103.899 34.578 109.557 32.077 L 115.007 29.667 L 110.057 26.085 C 102.135 20.352 87.616 14.734 80.721 14.734 C 78.629 14.734 78.63 14.75 81.09 21.285 Z M 118.167 39.484 C 115.695 44.605 111.607 56.684 111.607 58.866 C 111.607 60.12 114.344 61.985 120.857 65.169 C 125.944 67.656 131.283 69.958 132.719 70.286 L 135.332 70.882 L 134.514 65.707 C 133.533 59.504 132.014 54.623 129.386 49.234 C 127.063 44.472 121.342 35.739 120.542 35.736 C 120.232 35.735 119.163 37.422 118.167 39.484 Z M 127.902 81.685 C 118.509 85.34 111.607 89.434 111.607 91.35 C 111.607 93.505 116.29 107.21 118.496 111.508 L 120.335 115.093 L 123.601 110.663 C 128.295 104.299 132.205 95.276 133.974 86.728 C 134.819 82.645 135.417 79.21 135.302 79.096 C 135.187 78.981 131.857 80.146 127.902 81.685 Z M 88.419 113.904 C 85.738 118.006 82.413 124.984 80.525 130.474 L 78.689 135.809 L 82.398 135.201 C 93.161 133.435 107.366 127.293 112.607 122.137 C 113.94 120.826 113.94 120.556 112.607 119.709 C 109.641 117.824 97.033 112.889 93.524 112.238 C 90.476 111.673 89.715 111.921 88.419 113.904 Z M 66.107 55.393 C 55.148 61.16 50.608 73.534 55.5 84.305 C 58.614 91.161 67.255 96.746 74.723 96.728 C 83.37 96.708 93.358 89.085 95.588 80.803 C 98.099 71.478 93.288 60.537 84.7 56.041 C 79.436 53.286 70.69 52.981 66.107 55.393 Z M 50.107 114.132 C 42.45 116.656 35.607 119.76 35.607 120.707 C 35.607 121.039 38.456 123.183 41.938 125.472 C 51.006 131.434 70.624 137.634 70.595 134.529 C 70.576 132.495 64.17 118.333 61.7 114.864 C 60.474 113.143 58.939 111.754 58.289 111.779 C 57.639 111.803 53.957 112.862 50.107 114.132 Z" />
</svg>